<svg width="2103" height="2500" viewBox="0 0 2103 2500" fill="none" xmlns="http://www.w3.org/2000/svg">
<g clip-path="url(#clip0_153_244)">
<path fill-rule="evenodd" clip-rule="evenodd" d="M1935.79 2187.26C1889.94 2262.78 1844.09 2319.42 1788.8 2371.99C1726.77 2427.28 1709.24 2475.82 1566.3 2494.72C1465.16 2513.6 1377.51 2475.82 1343.8 2461.01C1242.66 2413.79 1190.05 2398.98 1129.38 2398.98C1070.05 2398.98 1020.16 2413.81 920.367 2459.66C889.352 2475.82 805.745 2512.25 703.259 2493.37C598.076 2474.49 544.136 2434.04 505.03 2400.32C424.12 2328.85 363.438 2261.43 308.149 2183.22L1935.79 2187.26Z" fill="#1E71B8"/>
<path fill-rule="evenodd" clip-rule="evenodd" d="M80.2725 929.114C127.47 822.583 189.501 751.113 251.532 701.218C409.306 571.763 666.869 563.672 785.536 594.687C882.628 618.96 951.402 678.294 1060.63 678.294C1175.25 678.294 1241.31 620.309 1331.68 594.687C1450.35 565.02 1709.26 574.46 1877.82 703.915C1927.71 741.673 1973.54 792.916 1999.16 821.235C1938.5 865.735 1902.07 898.099 1872.41 929.114H80.2725Z" fill="#6FB353"/>
<path fill-rule="evenodd" clip-rule="evenodd" d="M1872.42 929.115C1844.11 960.13 1823.88 989.797 1800.95 1031.6C1774 1080.15 1741.62 1146.22 1733.53 1246.01H0.710938C2.05943 1229.83 3.40793 1212.3 6.10493 1194.77C22.2869 1088.24 47.9083 1000.58 80.2723 929.115H1872.42Z" fill="#FFF22D"/>
<path fill-rule="evenodd" clip-rule="evenodd" d="M1733.53 1246.01C1732.18 1276.56 1732.18 1307.16 1733.53 1337.71C1737.58 1411.88 1763.2 1494.13 1796.91 1560.21L34.4233 1556.17C10.1504 1449.63 -3.33459 1340.41 0.7109 1246.01H1733.53Z" fill="#E0922F"/>
<path fill-rule="evenodd" clip-rule="evenodd" d="M1796.89 1560.21C1810.69 1588.83 1827.41 1615.94 1846.78 1641.12C1962.76 1789.46 2012.65 1789.46 2103 1835.3C2096.28 1851.47 2090.88 1866.32 2084.12 1879.8L136.909 1875.76C99.1512 1793.5 60.0448 1677.53 34.4233 1556.17L1796.89 1560.21Z" fill="#CC2229"/>
<path fill-rule="evenodd" clip-rule="evenodd" d="M2084.12 1879.8C2027.5 2011.96 1981.63 2109.03 1935.79 2187.26L308.168 2183.22C254.228 2103.66 205.683 2015.98 150.394 1906.76C146.349 1897.32 140.955 1886.53 136.909 1875.76L2084.12 1879.8Z" fill="#5A308D"/>
<path fill-rule="evenodd" clip-rule="evenodd" d="M1519.1 191.487C1509.66 258.911 1475.95 345.215 1422.01 400.504C1364 462.535 1273.67 529.959 1219.71 563.672C1190.05 582.551 1113.18 585.248 1049.82 591.99C1041.73 535.353 1040.38 486.807 1057.91 434.216C1080.84 372.185 1110.52 283.184 1157.7 221.154C1215.69 144.289 1281.76 91.6978 1318.17 72.8188C1366.74 48.5459 1447.65 12.1365 1517.75 0C1520.47 62.0309 1529.91 132.153 1519.1 191.487Z" fill="#6FB353"/>
</g>
<defs>
<clipPath id="clip0_153_244">
<rect width="2103" height="2500" fill="white"/>
</clipPath>
</defs>
</svg>
