<svg width="96" height="96" viewBox="0 0 96 96" fill="none" xmlns="http://www.w3.org/2000/svg">
<path d="M23.3 52L30.8 59.6C31.5333 60.3333 31.9166 61.25 31.95 62.35C31.9833 63.45 31.6 64.4 30.8 65.2C30.0666 65.9333 29.1333 66.3 28 66.3C26.8666 66.3 25.9333 65.9333 25.2 65.2L10.8 50.8C9.99998 50 9.59998 49.0666 9.59998 48C9.59998 46.9333 9.99998 46 10.8 45.2L25.2 30.8C25.9333 30.0666 26.85 29.7 27.95 29.7C29.05 29.7 30 30.0666 30.8 30.8C31.6 31.6 32 32.55 32 33.65C32 34.75 31.6 35.7 30.8 36.5L23.3 44H40C41.1333 44 42.0833 44.3833 42.85 45.15C43.6166 45.9166 44 46.8666 44 48C44 49.1333 43.6166 50.0833 42.85 50.85C42.0833 51.6166 41.1333 52 40 52H23.3ZM72.7 52H56C54.8666 52 53.9166 51.6166 53.15 50.85C52.3833 50.0833 52 49.1333 52 48C52 46.8666 52.3833 45.9166 53.15 45.15C53.9166 44.3833 54.8666 44 56 44L72.8 43.9L65.2 36.4C64.4666 35.6666 64.1 34.7333 64.1 33.6C64.1 32.4666 64.4666 31.5333 65.2 30.8C65.9333 30.0666 66.8666 29.7 68 29.7C69.1333 29.7 70.0666 30.0666 70.8 30.8L85.2 45.2C86 46 86.4 46.9333 86.4 48C86.4 49.0666 86 50 85.2 50.8L70.8 65.2C70 66 69.0666 66.3833 68 66.35C66.9333 66.3166 66 65.9 65.2 65.1C64.4666 64.3 64.0833 63.3666 64.05 62.3C64.0166 61.2333 64.4 60.3 65.2 59.5L72.7 52Z" fill="black"/>
</svg>
