<svg width="378" height="282" viewBox="0 0 378 282" fill="none" xmlns="http://www.w3.org/2000/svg">
<path d="M29.2741 239.765C30.1505 241.416 30.3527 243.506 29.8808 246.034H29.8303C28.6505 246.236 27.3865 246.371 26.0382 246.439C24.6899 246.472 23.4259 246.321 22.2462 245.984C22.4484 245.074 22.263 244.315 21.69 243.708C21.117 243.102 20.426 242.714 19.617 242.545C18.808 242.377 18.0159 242.461 17.2406 242.798C16.4991 243.135 16.0609 243.776 15.9261 244.72C15.8586 244.956 15.8249 245.192 15.8249 245.427C15.8586 245.63 15.8924 245.849 15.9261 246.085C16.1957 246.894 16.6339 247.433 17.2406 247.703C17.8474 247.972 18.5047 248.158 19.2125 248.259C20.999 248.461 22.6506 249.034 24.1675 249.978C25.718 250.922 26.982 252.118 27.9595 253.568C28.5663 254.343 29.0213 255.186 29.3247 256.096C29.628 256.972 29.7966 257.882 29.8303 258.826C29.8977 259.77 29.8303 260.731 29.628 261.708C29.4595 262.652 29.173 263.562 28.7685 264.438C28.364 265.483 27.8247 266.376 27.1506 267.118C26.4764 267.86 25.7011 268.466 24.8248 268.938C23.9821 269.41 23.0551 269.764 22.0439 270C21.0664 270.202 20.0552 270.287 19.0103 270.253C17.5271 270.219 16.044 269.966 14.5609 269.494C13.1115 268.989 11.8138 268.298 10.6677 267.421C9.52169 266.545 8.6116 265.483 7.93745 264.236C7.26331 262.955 6.9768 261.506 7.07792 259.888V259.736V259.584C8.25767 259.416 9.5554 259.382 10.9711 259.483C12.3868 259.551 13.6677 259.568 14.8137 259.534C14.8811 260.613 15.3025 261.422 16.0777 261.961C16.8867 262.5 17.7294 262.77 18.6058 262.77C19.5159 262.736 20.2911 262.433 20.9316 261.86C21.6057 261.287 21.8417 260.41 21.6394 259.231C21.5383 258.422 21.2349 257.781 20.7293 257.309C20.2237 256.804 19.617 256.399 18.9091 256.096C18.235 255.792 17.4934 255.573 16.6845 255.438C15.8755 255.27 15.1171 255.118 14.4092 254.983C13.7351 254.849 13.1115 254.63 12.5385 254.326C11.9655 254.023 11.443 253.669 10.9711 253.264C9.42057 251.781 8.40935 250.146 7.93745 248.36C7.49926 246.574 7.48241 244.838 7.88689 243.152C8.29138 241.467 9.04979 239.933 10.1621 238.551C11.3082 237.169 12.6902 236.141 14.3081 235.467C15.1171 235.13 16.0103 234.911 16.9878 234.81C17.9653 234.675 18.9429 234.641 19.9204 234.709C20.9316 234.742 21.9091 234.877 22.8529 235.113C23.8304 235.349 24.7236 235.652 25.5326 236.023C27.1506 236.866 28.3977 238.113 29.2741 239.765ZM40.1624 235.467C40.7355 235.501 41.3085 235.484 41.8815 235.416V242.192C41.8815 242.63 41.8815 243.085 41.8815 243.557C41.9152 244.029 41.9321 244.517 41.9321 245.023C42.977 244.989 44.0725 244.939 45.2185 244.871C46.3983 244.804 47.8477 244.72 49.5668 244.618C49.8027 244.888 49.9375 245.293 49.9712 245.832C50.0049 246.338 50.0049 246.894 49.9712 247.5C49.9375 248.107 49.887 248.731 49.8196 249.371C49.7859 249.978 49.8027 250.5 49.8701 250.939H42.0332C42.0332 252.759 42.0332 254.545 42.0332 256.298C42.0332 258.017 42.0501 259.635 42.0838 261.152C42.4208 261.624 42.9096 261.995 43.55 262.264C44.1905 262.534 44.8815 262.753 45.623 262.921C46.3646 263.056 47.1061 263.141 47.8477 263.174C48.623 263.208 49.2971 263.208 49.8701 263.174C49.9375 263.646 50.0049 264.169 50.0724 264.742C50.1398 265.315 50.1903 265.905 50.224 266.511C50.2578 267.118 50.2409 267.725 50.1735 268.331C50.1398 268.938 50.0387 269.494 49.8701 270C48.5218 270.067 47.123 270.067 45.6736 270C44.2242 269.899 42.859 269.697 41.5782 269.393C40.2973 269.09 39.1512 268.635 38.14 268.028C37.1625 267.421 36.4547 266.596 36.0165 265.551C35.5783 262.955 35.3255 260.511 35.2581 258.219C35.1906 255.894 35.1738 253.5 35.2075 251.04C34.6682 251.073 34.0952 251.09 33.4884 251.09C32.9154 251.09 32.275 251.09 31.5671 251.09L31.7188 244.922C32.3929 244.956 33.0165 244.972 33.5895 244.972C34.1963 244.972 34.7693 244.972 35.3086 244.972C35.3086 244.231 35.2918 243.439 35.2581 242.596C35.2243 241.72 35.2075 240.843 35.2075 239.967C35.2075 239.091 35.2075 238.248 35.2075 237.439C35.2412 236.63 35.2918 235.905 35.3592 235.265C35.7974 235.197 36.2693 235.18 36.7749 235.214C37.3142 235.248 37.8704 235.298 38.4434 235.366C39.0164 235.4 39.5894 235.433 40.1624 235.467ZM52.3839 248.461C52.5862 247.821 52.7379 247.315 52.839 246.944C53.0749 246.439 53.4457 246 53.9513 245.63C54.4906 245.259 55.0974 244.956 55.7715 244.72C56.4794 244.45 57.2209 244.265 57.9962 244.163C58.8052 244.062 59.6141 244.012 60.4231 244.012C61.0972 244.079 61.7377 244.096 62.3444 244.062C62.9849 243.995 63.659 243.995 64.3668 244.062C65.4455 244.13 66.4735 244.349 67.4511 244.72C68.4286 245.057 69.2712 245.562 69.9791 246.236C70.451 246.54 70.8218 247.029 71.0914 247.703C71.3611 248.377 71.5633 249.169 71.6982 250.079C71.833 250.955 71.9173 251.933 71.951 253.012C71.9847 254.056 72.0184 255.135 72.0521 256.247C72.0184 257.225 71.9678 258.337 71.9004 259.584C71.8667 260.832 71.7824 262.028 71.6476 263.174C71.5465 264.32 71.3948 265.348 71.1926 266.259C71.024 267.169 70.7712 267.792 70.4341 268.129C69.8611 268.938 69.1027 269.511 68.1589 269.848C67.2488 270.185 66.2544 270.388 65.1758 270.455C64.0972 270.556 62.9849 270.556 61.8388 270.455C60.6928 270.388 59.6478 270.354 58.704 270.354C56.985 270.051 55.5356 269.309 54.3558 268.129C53.4457 267.32 52.8221 266.309 52.4851 265.096C52.148 263.882 51.9457 262.618 51.8783 261.304C51.8109 259.955 51.7941 258.607 51.8278 257.259C51.8952 255.91 51.8783 254.68 51.7772 253.568C51.7772 252.961 51.7941 252.371 51.8278 251.798C51.8615 251.191 51.9289 250.568 52.03 249.927C52.0637 249.557 52.1817 249.068 52.3839 248.461ZM60.8782 251.798C60.1703 252 59.5973 252.371 59.1591 252.91C58.9568 253.045 58.8052 253.382 58.704 253.922C58.5692 255 58.5018 256.079 58.5018 257.158C58.5018 258.202 58.4681 259.315 58.4007 260.495C58.367 261.27 58.5692 261.877 59.0074 262.315C59.4456 262.719 59.9681 263.006 60.5748 263.174C61.2152 263.309 61.8725 263.343 62.5467 263.275C63.2208 263.174 63.777 263.006 64.2152 262.77C64.7882 262.5 65.1758 261.944 65.3781 261.101C65.5129 260.023 65.614 258.944 65.6814 257.865C65.7825 256.753 65.732 255.708 65.5297 254.731C65.3612 253.551 64.8725 252.691 64.0635 252.152C63.2545 251.613 62.1927 251.495 60.8782 251.798ZM93.0976 260.141C93.6706 260.141 94.1425 260.191 94.5133 260.292C94.4459 261.169 94.3785 262.028 94.3111 262.871C94.2437 263.714 94.1594 264.506 94.0583 265.247C93.9571 265.955 93.8223 266.579 93.6538 267.118C93.519 267.624 93.3336 267.994 93.0976 268.23C92.5246 269.039 91.7662 269.612 90.8224 269.949C89.9123 270.287 88.9179 270.489 87.8393 270.556C86.7607 270.657 85.6483 270.657 84.5023 270.556C83.3562 270.489 82.3113 270.455 81.3675 270.455C79.6484 270.152 78.199 269.41 77.0193 268.23C76.1092 267.421 75.4856 266.41 75.1485 265.197C74.8115 263.983 74.6092 262.719 74.5418 261.405C74.4744 260.056 74.4575 258.708 74.4912 257.36C74.5587 256.012 74.525 254.781 74.3901 253.669C74.3901 252.455 74.4912 251.242 74.6935 250.028C74.7272 249.658 74.8452 249.152 75.0474 248.512C75.2497 247.871 75.4013 247.382 75.5025 247.045C75.7384 246.54 76.1092 246.102 76.6148 245.731C77.1541 245.36 77.7608 245.057 78.435 244.821C79.1428 244.551 79.8844 244.366 80.6597 244.265C81.4686 244.163 82.2776 244.113 83.0866 244.113C83.7607 244.18 84.4012 244.197 85.0079 244.163C85.6483 244.096 86.3225 244.096 87.0303 244.163C88.109 244.231 89.137 244.433 90.1145 244.77C91.092 245.107 91.9347 245.613 92.6426 246.287C93.1145 246.624 93.4684 247.079 93.7043 247.652C93.974 248.225 94.1762 248.899 94.3111 249.675C94.4459 250.45 94.5133 251.326 94.5133 252.304C94.547 253.248 94.5807 254.276 94.6144 255.388C94.1762 255.489 93.6706 255.54 93.0976 255.54C92.5583 255.54 91.9853 255.523 91.3785 255.489C90.8055 255.455 90.2325 255.405 89.6595 255.337C89.1202 255.27 88.6314 255.203 88.1932 255.135C88.0247 253.955 87.5359 253.045 86.727 252.405C85.918 251.731 84.8562 251.562 83.5416 251.899C82.8338 252.101 82.2608 252.472 81.8226 253.012C81.6203 253.146 81.4686 253.483 81.3675 254.023C81.2327 255.068 81.1653 256.129 81.1653 257.208C81.1653 258.287 81.1316 259.416 81.0641 260.596C80.9967 261.371 81.1821 261.978 81.6203 262.416C82.0922 262.854 82.6484 263.157 83.2888 263.326C83.9293 263.461 84.5865 263.495 85.2607 263.427C85.9348 263.326 86.4742 263.141 86.8786 262.871C87.2157 262.635 87.4685 262.247 87.6371 261.708C87.8393 261.135 87.991 260.629 88.0921 260.191C88.4292 260.225 88.8842 260.242 89.4572 260.242C90.0303 260.208 90.637 260.174 91.2774 260.141C91.9179 260.107 92.5246 260.107 93.0976 260.141ZM102.875 233.192C103.448 233.192 103.954 233.225 104.392 233.293V244.366C104.392 245.478 104.358 246.658 104.291 247.905C104.257 249.152 104.291 250.163 104.392 250.939C104.965 250.433 105.454 249.877 105.858 249.27C106.296 248.663 106.701 248.057 107.072 247.45C107.443 246.809 107.813 246.169 108.184 245.529C108.589 244.888 109.044 244.281 109.549 243.708C109.987 243.877 110.56 243.978 111.268 244.012C111.976 244.012 112.701 244.012 113.442 244.012C114.218 243.978 114.976 243.944 115.718 243.911C116.459 243.843 117.066 243.826 117.538 243.86C116.291 245.781 114.942 247.686 113.493 249.573C112.044 251.427 110.611 253.298 109.195 255.186C110.712 257.646 112.229 260.09 113.746 262.517C115.296 264.91 116.712 267.405 117.993 270C117.521 270 116.914 270.017 116.173 270.051C115.465 270.118 114.723 270.169 113.948 270.202C113.173 270.236 112.414 270.236 111.673 270.202C110.965 270.169 110.358 270.101 109.853 270C109.347 269.191 108.875 268.365 108.437 267.523C108.032 266.68 107.628 265.854 107.223 265.045C106.819 264.202 106.381 263.377 105.909 262.568C105.471 261.759 104.965 260.983 104.392 260.242C104.392 260.848 104.409 261.556 104.443 262.365C104.476 263.174 104.493 264.017 104.493 264.893C104.493 265.77 104.476 266.663 104.443 267.573C104.409 268.449 104.325 269.258 104.19 270C103.819 269.966 103.347 269.966 102.774 270C102.235 270 101.662 270.017 101.055 270.051C100.448 270.084 99.8247 270.101 99.1843 270.101C98.5775 270.101 98.0214 270.067 97.5158 270C97.2798 263.73 97.2293 257.579 97.3641 251.545C97.4989 245.512 97.5495 239.428 97.5158 233.293C98.0214 233.293 98.5775 233.293 99.1843 233.293C99.8247 233.259 100.448 233.242 101.055 233.242C101.695 233.209 102.302 233.192 102.875 233.192ZM137.859 247.602C138.533 249.051 138.871 250.686 138.871 252.506C137.792 252.675 136.595 252.776 135.281 252.809C134 252.843 132.786 252.742 131.64 252.506C131.741 252.101 131.691 251.697 131.489 251.293C131.32 250.888 131.05 250.534 130.68 250.231C130.343 249.927 129.938 249.708 129.466 249.573C129.028 249.405 128.59 249.337 128.152 249.371C127.376 249.506 126.787 249.809 126.382 250.281C126.011 250.719 125.826 251.208 125.826 251.748C125.826 252.287 126.028 252.826 126.433 253.366C126.837 253.905 127.427 254.309 128.202 254.579C130.09 254.849 131.859 255.219 133.511 255.691C135.163 256.129 136.376 256.854 137.151 257.865C137.893 259.079 138.348 260.326 138.517 261.607C138.685 262.854 138.449 264.405 137.809 266.259C137.033 267.91 135.82 269.09 134.168 269.798C132.517 270.506 130.713 270.843 128.758 270.809C127.039 270.876 125.489 270.725 124.107 270.354C122.725 269.983 121.528 269.427 120.517 268.685C119.539 267.944 118.764 267.034 118.191 265.955C117.652 264.877 117.382 263.663 117.382 262.315V262.163V262.062C118.495 261.927 119.759 261.893 121.174 261.961C122.59 261.995 123.82 262.011 124.865 262.011C124.899 262.787 125.253 263.427 125.927 263.933C126.635 264.405 127.376 264.691 128.152 264.792C128.927 264.86 129.635 264.708 130.275 264.337C130.916 263.966 131.219 263.292 131.185 262.315C131.286 261.506 131.101 260.899 130.629 260.495C130.157 260.09 129.534 259.787 128.758 259.584C127.983 259.349 127.107 259.146 126.129 258.978C125.152 258.809 124.191 258.523 123.247 258.118C121.36 257.478 119.978 256.483 119.101 255.135C118.259 253.753 117.854 252.337 117.888 250.888C117.955 249.405 118.427 248.04 119.304 246.793C120.214 245.545 121.494 244.703 123.146 244.265C123.787 244.096 124.562 243.961 125.472 243.86C126.416 243.759 127.41 243.708 128.455 243.708C129.5 243.708 130.545 243.776 131.59 243.911C132.635 244.012 133.595 244.163 134.472 244.366C136.056 245.04 137.185 246.118 137.859 247.602ZM143.38 259.837C142.234 259.804 141.577 259.787 141.408 259.787C141.408 259.382 141.408 258.759 141.408 257.916C141.442 257.073 141.459 256.214 141.459 255.337C141.493 254.427 141.51 253.618 141.51 252.91C141.543 252.203 141.56 251.798 141.56 251.697C141.594 251.697 142.116 251.697 143.128 251.697C144.139 251.697 145.403 251.697 146.92 251.697C148.47 251.697 150.155 251.697 151.976 251.697C153.796 251.697 155.515 251.697 157.133 251.697C158.785 251.697 160.234 251.697 161.481 251.697C162.728 251.697 163.554 251.697 163.959 251.697C163.992 253.113 163.959 254.528 163.857 255.944C163.79 257.36 163.874 258.759 164.11 260.141H164.06C163.891 260.141 163.234 260.141 162.088 260.141C160.942 260.141 159.56 260.124 157.942 260.09C156.324 260.056 154.588 260.023 152.734 259.989C150.88 259.955 149.144 259.938 147.526 259.938C145.908 259.905 144.526 259.871 143.38 259.837ZM183.398 236.175C184.41 236.95 185.219 237.826 185.825 238.804C186.567 239.95 187.174 241.147 187.645 242.394C188.151 243.607 188.556 244.888 188.859 246.236C189.027 246.776 189.129 247.315 189.162 247.854C189.23 248.36 189.28 248.882 189.314 249.422C189.247 251.006 189.179 252.607 189.112 254.225C189.078 255.809 188.91 257.377 188.606 258.927C188.606 258.961 188.589 258.978 188.556 258.978C188.556 258.978 188.556 258.995 188.556 259.028C187.881 261.017 186.954 262.905 185.775 264.691C184.629 266.478 183.415 268.163 182.134 269.747C179.91 269.815 177.668 269.865 175.41 269.899C173.151 269.899 170.96 269.899 168.837 269.899C168.837 269.899 168.82 269.916 168.786 269.949C168.416 267.287 168.18 264.539 168.078 261.708C167.977 258.843 167.927 255.944 167.927 253.012C167.927 250.079 167.944 247.13 167.977 244.163C168.045 241.163 168.045 238.197 167.977 235.265C168.011 235.231 168.028 235.197 168.028 235.164C168.062 235.13 168.095 235.096 168.129 235.062C169.073 234.827 170.05 234.675 171.062 234.607C172.106 234.506 173.151 234.473 174.196 234.506C175.241 234.506 176.269 234.523 177.281 234.557C178.325 234.591 179.337 234.591 180.314 234.557C181.393 234.827 182.421 235.366 183.398 236.175ZM180.466 258.068C180.736 257.764 180.971 257.461 181.174 257.158C181.747 256.281 182.151 255.321 182.387 254.276C182.657 253.231 182.657 252.085 182.387 250.837C182.286 250.332 182.168 249.809 182.033 249.27C181.898 248.697 181.696 248.158 181.427 247.652C181.191 247.147 180.887 246.708 180.516 246.338C180.146 245.933 179.674 245.63 179.101 245.427C178.528 245.36 177.904 245.326 177.23 245.326C176.556 245.293 175.915 245.343 175.309 245.478H175.208H175.157V245.68C175.224 246.59 175.258 247.568 175.258 248.613C175.258 249.658 175.241 250.753 175.208 251.899C175.174 253.012 175.157 254.158 175.157 255.337C175.157 256.483 175.191 257.629 175.258 258.776C175.629 259.113 176.134 259.264 176.775 259.231C177.449 259.197 178.089 259.146 178.696 259.079C178.865 259.113 179.016 259.096 179.151 259.028C179.286 258.927 179.438 258.843 179.606 258.776C179.943 258.573 180.23 258.337 180.466 258.068ZM209.661 244.669C210.503 244.703 211.464 244.753 212.543 244.821C212.576 245.023 212.593 245.225 212.593 245.427C212.627 245.63 212.644 245.832 212.644 246.034V246.54C212.543 250.18 212.56 253.77 212.694 257.309C212.829 260.815 212.779 264.371 212.543 267.978C212.543 268.416 212.526 268.854 212.492 269.292C212.492 269.73 212.29 269.983 211.885 270.051H211.279C210.739 270.051 210.183 270.034 209.61 270C209.071 269.933 208.532 269.899 207.992 269.899C207.621 269.899 207.251 269.933 206.88 270C206.543 270.034 206.189 270.051 205.818 270.051C205.582 269.983 205.414 269.848 205.313 269.646C205.245 269.444 205.211 269.208 205.211 268.938C205.211 268.567 205.245 268.264 205.313 268.028C205.38 267.792 205.414 267.506 205.414 267.169C204.605 267.978 203.577 268.669 202.329 269.242C201.116 269.815 199.919 270.101 198.74 270.101C197.425 270.101 196.296 269.646 195.352 268.736C194.442 267.826 193.684 266.697 193.077 265.348C192.47 264 192.015 262.534 191.712 260.95C191.442 259.365 191.307 257.899 191.307 256.551C191.307 254.865 191.526 253.315 191.964 251.899C192.403 250.484 192.993 249.27 193.734 248.259C194.509 247.214 195.419 246.405 196.464 245.832C197.509 245.225 198.622 244.905 199.801 244.871C200.408 244.871 200.964 244.888 201.47 244.922C202.009 244.922 202.498 245.006 202.936 245.175C203.374 245.309 203.762 245.545 204.099 245.883C204.436 246.186 204.723 246.624 204.959 247.197C204.925 246.658 204.942 246.203 205.009 245.832C205.11 245.427 205.161 245.023 205.161 244.618C205.161 244.585 205.262 244.568 205.464 244.568C205.7 244.534 205.953 244.534 206.223 244.568C206.492 244.568 206.762 244.568 207.032 244.568C207.301 244.568 207.487 244.568 207.588 244.568C208.161 244.602 208.852 244.635 209.661 244.669ZM199.245 252.658C198.47 253.298 197.998 254.04 197.83 254.882C197.695 255.321 197.61 255.776 197.577 256.247C197.543 256.686 197.526 257.124 197.526 257.562C197.526 259.079 197.914 260.377 198.689 261.455C199.498 262.5 200.61 263.023 202.026 263.023C202.869 263.023 203.492 262.888 203.897 262.618C204.335 262.315 204.638 261.91 204.807 261.405C205.009 260.865 205.11 260.225 205.11 259.483C205.144 258.708 205.161 257.849 205.161 256.905C205.161 255.725 205.144 254.798 205.11 254.124C205.11 253.416 205.026 252.877 204.857 252.506C204.723 252.135 204.47 251.899 204.099 251.798C203.762 251.697 203.24 251.646 202.532 251.646C201.15 251.646 200.054 251.984 199.245 252.658ZM235.426 247.602C236.1 249.051 236.437 250.686 236.437 252.506C235.358 252.675 234.162 252.776 232.847 252.809C231.566 252.843 230.353 252.742 229.207 252.506C229.308 252.101 229.257 251.697 229.055 251.293C228.887 250.888 228.617 250.534 228.246 250.231C227.909 249.927 227.505 249.708 227.033 249.573C226.595 249.405 226.156 249.337 225.718 249.371C224.943 249.506 224.353 249.809 223.949 250.281C223.578 250.719 223.392 251.208 223.392 251.748C223.392 252.287 223.595 252.826 223.999 253.366C224.404 253.905 224.993 254.309 225.769 254.579C227.656 254.849 229.426 255.219 231.078 255.691C232.729 256.129 233.943 256.854 234.718 257.865C235.46 259.079 235.915 260.326 236.083 261.607C236.252 262.854 236.016 264.405 235.375 266.259C234.6 267.91 233.387 269.09 231.735 269.798C230.083 270.506 228.28 270.843 226.325 270.809C224.606 270.876 223.055 270.725 221.673 270.354C220.291 269.983 219.095 269.427 218.083 268.685C217.106 267.944 216.331 267.034 215.758 265.955C215.218 264.877 214.949 263.663 214.949 262.315V262.163V262.062C216.061 261.927 217.325 261.893 218.741 261.961C220.156 261.995 221.387 262.011 222.432 262.011C222.465 262.787 222.819 263.427 223.493 263.933C224.201 264.405 224.943 264.691 225.718 264.792C226.493 264.86 227.201 264.708 227.842 264.337C228.482 263.966 228.786 263.292 228.752 262.315C228.853 261.506 228.668 260.899 228.196 260.495C227.724 260.09 227.1 259.787 226.325 259.584C225.55 259.349 224.673 259.146 223.696 258.978C222.718 258.809 221.758 258.523 220.814 258.118C218.926 257.478 217.544 256.483 216.668 255.135C215.825 253.753 215.421 252.337 215.454 250.888C215.522 249.405 215.994 248.04 216.87 246.793C217.78 245.545 219.061 244.703 220.713 244.265C221.353 244.096 222.128 243.961 223.038 243.86C223.982 243.759 224.977 243.708 226.022 243.708C227.066 243.708 228.111 243.776 229.156 243.911C230.201 244.012 231.162 244.163 232.038 244.366C233.622 245.04 234.752 246.118 235.426 247.602ZM245.598 246.186C245.598 246.894 245.598 247.315 245.598 247.45C245.767 247.349 245.969 247.231 246.205 247.096C246.475 246.961 246.694 246.826 246.862 246.691C247.57 246.186 248.362 245.781 249.239 245.478C250.115 245.175 251.008 245.006 251.919 244.972C252.862 244.939 253.772 245.04 254.649 245.276C255.525 245.512 256.317 245.933 257.025 246.54C257.362 246.843 257.615 247.484 257.784 248.461C257.986 249.405 258.104 250.551 258.137 251.899C258.205 253.248 258.222 254.731 258.188 256.349C258.188 257.933 258.171 259.551 258.137 261.202C258.104 262.82 258.07 264.388 258.036 265.905C258.003 267.421 258.02 268.753 258.087 269.899C256.907 270.067 255.845 270.135 254.902 270.101C253.992 270.101 252.947 270.101 251.767 270.101C251.699 269.326 251.666 268.449 251.666 267.472C251.666 266.494 251.666 265.483 251.666 264.438C251.699 263.393 251.699 262.348 251.666 261.304C251.666 260.259 251.632 259.281 251.565 258.371C251.531 257.967 251.497 257.528 251.463 257.056C251.43 256.551 251.362 256.062 251.261 255.59C251.194 255.118 251.076 254.697 250.907 254.326C250.772 253.955 250.57 253.669 250.301 253.467C250.267 253.433 250.233 253.416 250.199 253.416C250.166 253.416 250.132 253.399 250.098 253.366C249.829 253.231 249.424 253.13 248.885 253.062C248.379 252.961 247.874 252.995 247.368 253.163C246.862 253.298 246.407 253.601 246.003 254.073C245.598 254.512 245.362 255.186 245.295 256.096C245.228 257.276 245.211 258.438 245.244 259.584C245.278 260.697 245.312 261.826 245.346 262.972C245.413 264.084 245.447 265.197 245.447 266.309C245.447 267.421 245.379 268.534 245.244 269.646V269.848C244.671 270.017 244.166 270.118 243.728 270.152C243.323 270.185 242.902 270.185 242.464 270.152C242.025 270.152 241.537 270.135 240.997 270.101C240.458 270.067 239.784 270.084 238.975 270.152C238.975 268.77 238.958 267.118 238.924 265.197C238.924 263.242 238.908 261.152 238.874 258.927C238.874 256.703 238.874 254.41 238.874 252.051C238.874 249.658 238.874 247.332 238.874 245.074C238.874 242.815 238.874 240.692 238.874 238.703C238.908 236.68 238.941 234.928 238.975 233.445C239.379 233.478 239.717 233.512 239.986 233.546C240.256 233.546 240.509 233.546 240.745 233.546C240.981 233.546 241.233 233.546 241.503 233.546C241.773 233.512 242.11 233.478 242.514 233.445C242.649 233.445 242.885 233.428 243.222 233.394C243.559 233.327 243.896 233.276 244.233 233.242C244.57 233.209 244.874 233.209 245.143 233.242C245.413 233.242 245.548 233.293 245.548 233.394C245.582 233.563 245.598 234.018 245.598 234.759C245.598 235.467 245.598 236.327 245.598 237.338C245.598 238.315 245.598 239.377 245.598 240.523C245.598 241.635 245.598 242.68 245.598 243.658C245.598 244.635 245.598 245.478 245.598 246.186ZM267.554 234.355C268.026 234.388 268.262 234.422 268.262 234.456V235.012C268.296 235.686 268.312 236.209 268.312 236.579C268.346 236.916 268.363 237.237 268.363 237.54C268.397 237.81 268.414 238.113 268.414 238.45C268.447 238.753 268.464 239.208 268.464 239.815C268.464 240.388 268.464 241.163 268.464 242.141C268.464 243.119 268.447 244.399 268.414 245.984C268.481 245.68 268.852 245.411 269.526 245.175C270.2 244.939 271.026 244.787 272.003 244.72C272.981 244.618 274.009 244.618 275.088 244.72C276.2 244.787 277.211 244.989 278.121 245.326C278.863 245.596 279.486 246.068 279.992 246.742C280.531 247.382 280.953 248.175 281.256 249.118C281.593 250.028 281.829 251.04 281.964 252.152C282.132 253.264 282.217 254.41 282.217 255.59C282.149 257.276 282.031 258.944 281.863 260.596C281.694 262.247 281.323 263.747 280.75 265.096C280.211 266.41 279.385 267.506 278.273 268.382C277.161 269.225 275.644 269.713 273.722 269.848C272.779 269.983 271.885 269.916 271.043 269.646C270.2 269.343 269.526 268.685 269.02 267.674C268.919 267.472 268.818 267.421 268.717 267.523C268.65 267.59 268.582 267.708 268.515 267.876C268.515 268.247 268.498 268.534 268.464 268.736C268.464 268.938 268.464 269.208 268.464 269.545C268.464 269.713 268.447 269.831 268.414 269.899C267.402 270.034 266.273 270.067 265.026 270C263.779 269.966 262.633 269.949 261.588 269.949C261.52 267.523 261.487 265.011 261.487 262.416C261.52 259.787 261.554 257.124 261.588 254.427C261.655 251.697 261.723 248.933 261.79 246.135C261.858 243.338 261.891 240.54 261.891 237.742V234.405C262.431 234.304 263.071 234.254 263.813 234.254C264.554 234.22 265.245 234.22 265.886 234.254C266.56 234.254 267.116 234.287 267.554 234.355ZM276.402 255.54C276.368 255.034 276.267 254.545 276.099 254.073C275.93 252.894 275.425 252 274.582 251.394C273.773 250.787 272.678 250.484 271.296 250.484C270.588 250.484 270.015 250.551 269.576 250.686C269.172 250.787 268.869 251.04 268.666 251.444C268.464 251.849 268.329 252.439 268.262 253.214C268.228 253.955 268.211 254.983 268.211 256.298C268.211 257.377 268.228 258.371 268.262 259.281C268.329 260.158 268.481 260.916 268.717 261.556C268.987 262.197 269.357 262.702 269.829 263.073C270.301 263.444 270.975 263.629 271.852 263.629C272.56 263.629 273.2 263.444 273.773 263.073C274.346 262.702 274.835 262.214 275.239 261.607C275.644 260.966 275.947 260.259 276.149 259.483C276.352 258.674 276.453 257.849 276.453 257.006C276.453 256.534 276.436 256.045 276.402 255.54ZM285.092 248.461C285.294 247.821 285.446 247.315 285.547 246.944C285.783 246.439 286.154 246 286.659 245.63C287.199 245.259 287.805 244.956 288.479 244.72C289.187 244.45 289.929 244.265 290.704 244.163C291.513 244.062 292.322 244.012 293.131 244.012C293.805 244.079 294.446 244.096 295.052 244.062C295.693 243.995 296.367 243.995 297.075 244.062C298.153 244.13 299.182 244.349 300.159 244.72C301.137 245.057 301.979 245.562 302.687 246.236C303.159 246.54 303.53 247.029 303.799 247.703C304.069 248.377 304.271 249.169 304.406 250.079C304.541 250.955 304.625 251.933 304.659 253.012C304.693 254.056 304.726 255.135 304.76 256.247C304.726 257.225 304.676 258.337 304.608 259.584C304.575 260.832 304.49 262.028 304.356 263.174C304.254 264.32 304.103 265.348 303.901 266.259C303.732 267.169 303.479 267.792 303.142 268.129C302.569 268.938 301.811 269.511 300.867 269.848C299.957 270.185 298.962 270.388 297.884 270.455C296.805 270.556 295.693 270.556 294.547 270.455C293.401 270.388 292.356 270.354 291.412 270.354C289.693 270.051 288.244 269.309 287.064 268.129C286.154 267.32 285.53 266.309 285.193 265.096C284.856 263.882 284.654 262.618 284.586 261.304C284.519 259.955 284.502 258.607 284.536 257.259C284.603 255.91 284.586 254.68 284.485 253.568C284.485 252.961 284.502 252.371 284.536 251.798C284.569 251.191 284.637 250.568 284.738 249.927C284.772 249.557 284.89 249.068 285.092 248.461ZM293.586 251.798C292.878 252 292.305 252.371 291.867 252.91C291.665 253.045 291.513 253.382 291.412 253.922C291.277 255 291.21 256.079 291.21 257.158C291.21 258.202 291.176 259.315 291.109 260.495C291.075 261.27 291.277 261.877 291.715 262.315C292.154 262.719 292.676 263.006 293.283 263.174C293.923 263.309 294.58 263.343 295.255 263.275C295.929 263.174 296.485 263.006 296.923 262.77C297.496 262.5 297.884 261.944 298.086 261.101C298.221 260.023 298.322 258.944 298.389 257.865C298.491 256.753 298.44 255.708 298.238 254.731C298.069 253.551 297.58 252.691 296.771 252.152C295.962 251.613 294.901 251.495 293.586 251.798ZM325.249 244.669C326.092 244.703 327.053 244.753 328.131 244.821C328.165 245.023 328.182 245.225 328.182 245.427C328.216 245.63 328.233 245.832 328.233 246.034V246.54C328.131 250.18 328.148 253.77 328.283 257.309C328.418 260.815 328.367 264.371 328.131 267.978C328.131 268.416 328.115 268.854 328.081 269.292C328.081 269.73 327.879 269.983 327.474 270.051H326.867C326.328 270.051 325.772 270.034 325.199 270C324.66 269.933 324.12 269.899 323.581 269.899C323.21 269.899 322.839 269.933 322.469 270C322.132 270.034 321.778 270.051 321.407 270.051C321.171 269.983 321.002 269.848 320.901 269.646C320.834 269.444 320.8 269.208 320.8 268.938C320.8 268.567 320.834 268.264 320.901 268.028C320.969 267.792 321.002 267.506 321.002 267.169C320.193 267.978 319.165 268.669 317.918 269.242C316.705 269.815 315.508 270.101 314.328 270.101C313.014 270.101 311.885 269.646 310.941 268.736C310.031 267.826 309.272 266.697 308.665 265.348C308.059 264 307.604 262.534 307.3 260.95C307.031 259.365 306.896 257.899 306.896 256.551C306.896 254.865 307.115 253.315 307.553 251.899C307.991 250.484 308.581 249.27 309.323 248.259C310.098 247.214 311.008 246.405 312.053 245.832C313.098 245.225 314.21 244.905 315.39 244.871C315.997 244.871 316.553 244.888 317.059 244.922C317.598 244.922 318.087 245.006 318.525 245.175C318.963 245.309 319.351 245.545 319.688 245.883C320.025 246.186 320.311 246.624 320.547 247.197C320.514 246.658 320.53 246.203 320.598 245.832C320.699 245.427 320.75 245.023 320.75 244.618C320.75 244.585 320.851 244.568 321.053 244.568C321.289 244.534 321.542 244.534 321.811 244.568C322.081 244.568 322.351 244.568 322.62 244.568C322.89 244.568 323.075 244.568 323.176 244.568C323.749 244.602 324.44 244.635 325.249 244.669ZM314.834 252.658C314.059 253.298 313.587 254.04 313.418 254.882C313.283 255.321 313.199 255.776 313.165 256.247C313.132 256.686 313.115 257.124 313.115 257.562C313.115 259.079 313.502 260.377 314.278 261.455C315.087 262.5 316.199 263.023 317.615 263.023C318.457 263.023 319.081 262.888 319.486 262.618C319.924 262.315 320.227 261.91 320.396 261.405C320.598 260.865 320.699 260.225 320.699 259.483C320.733 258.708 320.75 257.849 320.75 256.905C320.75 255.725 320.733 254.798 320.699 254.124C320.699 253.416 320.615 252.877 320.446 252.506C320.311 252.135 320.059 251.899 319.688 251.798C319.351 251.697 318.828 251.646 318.12 251.646C316.738 251.646 315.643 251.984 314.834 252.658ZM338.678 245.984C338.711 246.085 338.728 246.253 338.728 246.489C338.863 246.422 339.166 246.287 339.638 246.085C340.144 245.883 340.633 245.697 341.105 245.529C341.745 245.326 342.47 245.175 343.279 245.074C344.088 244.939 344.846 244.854 345.554 244.821C346.262 244.787 346.852 244.787 347.324 244.821C347.829 244.821 348.082 244.838 348.082 244.871C348.082 246.017 348.065 247.029 348.031 247.905C348.031 248.781 348.031 249.573 348.031 250.281C348.031 250.955 348.031 251.579 348.031 252.152C348.031 252.725 348.048 253.264 348.082 253.77L347.627 253.618C347.458 253.551 347.273 253.5 347.071 253.467C346.902 253.399 346.734 253.332 346.565 253.264C346.161 253.163 345.739 253.079 345.301 253.012C344.897 252.944 344.678 252.91 344.644 252.91C343.734 252.809 342.891 252.759 342.116 252.759C341.374 252.759 340.717 252.877 340.144 253.113C339.605 253.349 339.183 253.719 338.88 254.225C338.577 254.731 338.442 255.455 338.475 256.399C338.509 257.579 338.543 258.691 338.577 259.736C338.61 260.781 338.627 261.843 338.627 262.921C338.627 263.966 338.627 265.045 338.627 266.157C338.661 267.236 338.678 268.399 338.678 269.646V269.848C338.105 270.017 337.582 270.118 337.11 270.152C336.638 270.185 336.15 270.185 335.644 270.152C335.138 270.152 334.582 270.135 333.976 270.101C333.402 270.067 332.711 270.084 331.903 270.152C331.903 266.006 331.852 261.86 331.751 257.714C331.683 253.568 331.717 249.27 331.852 244.821C332.256 244.854 332.594 244.888 332.863 244.922C333.133 244.922 333.386 244.922 333.622 244.922C333.858 244.922 334.11 244.922 334.38 244.922C334.65 244.888 334.987 244.854 335.391 244.821C335.526 244.821 335.762 244.804 336.099 244.77C336.47 244.736 336.841 244.703 337.211 244.669C337.616 244.635 337.953 244.635 338.223 244.669C338.526 244.669 338.678 244.703 338.678 244.77C338.678 245.04 338.678 245.242 338.678 245.377C338.678 245.512 338.678 245.63 338.678 245.731C338.678 245.798 338.678 245.883 338.678 245.984ZM363.511 236.579C363.545 236.209 363.579 235.686 363.612 235.012V234.456C363.612 234.422 363.832 234.388 364.27 234.355C364.742 234.287 365.298 234.254 365.938 234.254C366.612 234.22 367.32 234.22 368.062 234.254C368.803 234.254 369.444 234.304 369.983 234.405V237.742C369.983 243.371 370.067 248.933 370.236 254.427C370.404 259.922 370.421 265.096 370.286 269.949C369.242 269.949 368.095 269.966 366.848 270C365.601 270.067 364.472 270.034 363.461 269.899C363.427 269.831 363.41 269.713 363.41 269.545C363.41 269.208 363.393 268.938 363.36 268.736C363.36 268.534 363.36 268.247 363.36 267.876C363.292 267.708 363.208 267.59 363.107 267.523C363.039 267.421 362.955 267.472 362.854 267.674C362.348 268.685 361.674 269.343 360.832 269.646C359.989 269.916 359.096 269.983 358.152 269.848C356.231 269.713 354.714 269.225 353.601 268.382C352.489 267.506 351.646 266.41 351.073 265.096C350.534 263.747 350.163 262.247 349.961 260.596C349.792 258.944 349.691 257.276 349.658 255.59C349.658 254.41 349.725 253.264 349.86 252.152C350.028 251.04 350.264 250.028 350.568 249.118C350.905 248.175 351.326 247.382 351.832 246.742C352.371 246.068 353.012 245.596 353.753 245.326C354.663 244.989 355.658 244.787 356.736 244.72C357.849 244.618 358.893 244.618 359.871 244.72C360.848 244.787 361.674 244.939 362.348 245.175C363.023 245.411 363.393 245.68 363.461 245.984C363.427 244.399 363.41 243.119 363.41 242.141C363.41 241.163 363.41 240.388 363.41 239.815C363.41 239.208 363.41 238.753 363.41 238.45C363.444 238.113 363.461 237.81 363.461 237.54C363.494 237.237 363.511 236.916 363.511 236.579ZM357.242 251.394C356.433 252 355.944 252.894 355.776 254.073C355.607 254.545 355.506 255.034 355.472 255.54C355.438 256.045 355.422 256.534 355.422 257.006C355.422 257.849 355.523 258.674 355.725 259.483C355.927 260.259 356.231 260.966 356.635 261.607C357.04 262.214 357.528 262.702 358.101 263.073C358.674 263.444 359.315 263.629 360.023 263.629C360.865 263.629 361.523 263.444 361.994 263.073C362.5 262.702 362.871 262.197 363.107 261.556C363.376 260.916 363.528 260.158 363.562 259.281C363.629 258.371 363.663 257.377 363.663 256.298C363.663 254.983 363.629 253.955 363.562 253.214C363.528 252.439 363.41 251.849 363.208 251.444C363.006 251.04 362.685 250.787 362.247 250.686C361.843 250.551 361.287 250.484 360.579 250.484C359.197 250.484 358.084 250.787 357.242 251.394Z" fill="#0A3064"/>
<path d="M370.394 145.23C370.814 144.11 371.094 143.13 371.514 142.01L370.534 144.95C370.534 144.95 370.394 145.09 370.394 145.23Z" fill="#0A3064"/>
<path d="M212.954 162.06C211.974 161.36 210.994 160.94 210.014 160.52C210.004 160.66 211.264 161.22 212.954 162.06Z" fill="#0A3064"/>
<path d="M371.514 141.17V140.89C371.794 140.05 371.934 139.21 372.074 138.37C365.204 159.4 350.484 175.38 341.374 183.66C342.634 182.82 343.614 182.12 344.884 180.86C342.924 182.82 342.364 183.52 341.944 184.37C343.064 183.25 344.184 182.41 345.454 181.43C345.174 182.27 345.174 182.27 337.744 189.42C346.854 181.29 361.714 168.25 369.854 146.8L370.414 144.98C370.954 143.55 371.234 142.29 371.514 141.17Z" fill="#0A3064"/>
<path d="M370.114 146.21L369.974 146.63C369.974 146.36 370.114 146.36 370.114 146.21Z" fill="#0A3064"/>
<path d="M217.994 164.44C216.174 163.46 214.344 162.62 212.944 162.06C214.634 163.04 216.174 164.02 217.994 164.44Z" fill="#0A3064"/>
<path d="M369.834 146.64V146.78L369.974 146.5L370.114 146.08L370.394 145.52C370.394 145.38 370.534 145.24 370.534 145.24C370.534 145.1 370.534 145.1 370.674 144.96L369.834 146.64Z" fill="#E4E5E6"/>
<path d="M369.834 146.92L370.394 145.52C370.534 145.24 370.534 145.1 370.534 144.82L369.834 146.92ZM285.854 86.49C285.014 86.91 284.454 87.05 283.614 87.61H283.894C285.154 87.75 285.154 87.75 290.204 85.93C290.344 85.93 290.484 85.79 290.624 85.79C288.374 85.93 287.254 86.07 285.854 86.49ZM232.154 128.13C229.914 129.39 226.684 131.21 224.304 132.62C226.694 131.21 229.774 129.39 232.154 128.13ZM276.884 79.2C276.744 79.34 276.604 79.34 276.324 79.34C276.464 79.34 276.744 79.34 276.884 79.2ZM299.874 74.15C299.734 74.15 299.594 74.15 299.314 74.29C299.034 74.29 298.754 74.43 298.474 74.43C298.894 74.29 299.454 74.29 299.874 74.15ZM302.544 73.87C302.264 73.87 301.984 73.87 301.704 73.87C305.494 73.17 308.994 72.61 312.224 72.33C311.384 72.61 310.404 72.89 309.564 73.17C309.284 73.31 308.444 73.31 308.164 73.45C308.164 73.59 308.024 73.73 307.884 73.73L307.464 73.87C306.624 74.01 305.644 73.87 304.664 73.87C304.244 73.87 303.684 73.87 303.124 73.87C302.824 73.87 302.684 73.87 302.544 73.87ZM229.214 32.09C215.894 37 199.214 45.55 185.194 58.31C181.124 61.96 177.344 65.32 170.894 68.4C170.194 69.94 169.354 72.19 168.654 73.73C167.394 77.09 166.834 78.92 166.134 81.16C166.134 81.3 166.134 81.58 166.274 81.72C167.254 81.86 169.214 80.74 176.364 76.39C189.264 68.54 195.294 64.89 207.204 59.29C206.224 62.8 204.684 64.76 200.894 67.84C199.774 68.54 198.374 69.52 197.244 70.22C193.034 72.6 188.554 74.71 184.344 76.95C179.434 79.75 174.674 82.98 169.624 85.78C169.204 86.06 168.504 86.34 168.084 86.62C166.124 87.6 165.004 87.04 165.004 85.22C165.004 85.08 165.004 84.94 165.004 84.8C164.724 85.78 164.444 86.9 164.164 88.16C162.344 96.57 161.924 103.72 161.644 109.33C161.644 127.14 165.154 137.51 165.294 137.93C165.294 138.07 165.434 138.35 165.574 138.49C165.994 138.49 166.414 138.63 166.694 138.77C167.814 143.68 167.814 144.24 168.654 146.48C170.754 148.02 169.914 150.69 171.314 152.65C172.014 152.37 172.854 152.23 173.694 152.23L172.574 152.65C173.694 153.07 175.094 153.35 176.224 153.63C176.084 157.56 176.084 157.56 176.644 158.54C176.924 158.26 177.344 157.98 177.764 157.84C183.934 159.1 183.934 159.1 187.014 156.58L189.534 154.34C187.014 157.28 187.014 157.28 187.154 159.53C188.974 159.81 188.974 159.81 225.994 134.01C242.534 124.76 258.104 113.96 274.504 104.43C262.304 108.08 251.654 115.23 240.014 120.13C236.224 122.37 232.864 124.34 229.784 126.16L229.644 125.88C229.644 125.74 229.084 124.76 228.804 124.62C228.664 124.62 228.524 124.62 228.384 124.62C228.244 124.62 227.964 124.62 227.824 124.48C227.124 124.2 226.004 124.06 225.304 124.2C225.164 124.2 224.884 124.48 224.744 124.48C224.324 124.62 224.184 124.76 223.904 124.9C223.484 125.04 223.344 125.32 222.924 125.32C222.504 125.46 222.084 125.46 221.664 125.32H220.964C220.824 125.32 219.844 125.46 219.704 125.32C219.424 125.04 219.844 124.48 219.984 124.2C220.124 123.92 220.124 123.64 220.264 123.5C220.264 123.36 220.404 123.22 220.544 123.22C220.684 123.08 220.684 122.94 220.824 122.8C221.104 122.1 221.944 121.54 222.504 121.12C223.204 120.56 224.184 120 224.884 119.44C225.724 118.88 226.704 118.04 227.684 117.76C227.964 117.62 228.384 117.62 228.804 117.62C229.224 117.48 229.224 117.34 229.504 116.92C229.644 116.64 229.784 116.64 229.644 116.5C229.644 116.36 228.384 115.8 228.244 115.8C227.824 115.8 227.964 115.8 227.684 115.8C227.264 115.94 226.844 116.08 226.424 116.36C226.004 116.64 225.444 116.92 225.024 117.2C224.744 117.48 224.464 117.76 224.324 118.04C222.924 118.88 221.664 119.72 220.254 120.56C220.114 120.56 220.114 120.7 219.974 120.7C219.694 120.84 219.414 120.7 219.134 120.84C218.294 120.98 217.314 121.4 216.474 121.68C215.914 121.82 215.074 121.96 214.514 122.38C214.234 122.52 214.094 122.8 213.954 123.08C213.534 123.5 212.974 123.92 212.414 124.2C211.854 124.48 211.434 124.48 210.874 124.48H210.454C210.174 124.48 209.894 124.62 209.754 124.48H209.614C209.474 124.48 209.474 124.48 209.474 124.34C209.474 124.2 209.474 123.92 209.474 123.92C209.614 123.64 210.034 123.5 210.174 122.94C209.894 122.52 208.494 122.8 208.074 122.94C207.094 123.22 206.114 123.5 205.134 124.06C204.294 124.48 203.454 124.62 202.754 124.9C201.774 125.32 201.074 125.04 199.954 124.76C199.954 124.34 199.954 124.2 200.094 123.92C200.234 123.64 200.514 123.5 200.654 123.22L200.794 122.94C201.214 122.52 201.634 122.1 201.914 121.68C202.754 120.84 203.874 120.28 204.714 119.58C205.694 118.6 206.674 117.76 207.654 116.78C207.794 116.64 208.074 116.5 208.214 116.36C208.354 116.36 208.494 116.36 208.634 116.22C208.774 116.08 208.774 115.8 208.914 115.52C209.054 115.52 209.054 115.38 209.194 115.38C209.614 114.96 210.174 114.68 210.594 114.26C210.874 114.12 211.014 113.98 211.154 113.84C211.294 113.56 211.294 113.14 211.154 113C210.874 113 210.594 113.56 210.454 113.7C210.034 114.12 209.474 114.26 208.914 114.54C207.654 115.1 205.974 115.94 204.424 115.94C204.004 115.94 203.584 115.94 203.164 115.94C202.884 115.94 202.604 115.94 202.464 115.94C202.464 115.94 201.344 116.08 201.204 115.94C200.924 115.66 201.764 114.54 201.904 114.4C202.184 113.98 202.464 113.56 202.884 113.14C203.024 113 203.164 112.72 203.304 112.44C203.444 112.3 203.304 112.3 203.724 112.16C204.704 111.6 205.684 111.04 206.664 110.34C206.804 110.2 207.084 110.06 207.364 109.92C207.644 109.92 207.784 109.92 207.924 109.78C208.204 109.64 208.484 109.36 208.624 109.22C209.744 108.52 211.144 107.96 212.274 107.4C213.954 106.56 215.354 105.3 217.044 104.46C217.604 104.18 218.164 103.9 218.724 103.76C219.144 103.62 219.424 103.62 219.844 103.34C220.544 102.78 221.384 102.36 222.224 101.94C223.064 101.52 224.044 101.24 224.884 100.82C225.164 100.68 225.304 100.4 225.584 100.26C225.864 100.12 226.004 100.12 226.284 100.12C226.704 99.84 227.124 99.7 227.544 99.56C227.824 99.42 228.524 99.14 228.804 99C229.224 98.86 229.644 98.72 230.064 98.44C230.484 98.3 230.624 98.16 230.904 97.6C231.044 97.32 231.184 96.9 231.044 96.76C230.344 96.76 229.504 97.18 228.944 97.46C228.244 97.74 227.544 97.88 226.984 98.16C226.564 98.3 226.284 98.58 226.004 98.72C225.864 98.86 225.724 98.72 225.584 98.72C225.444 98.72 225.444 98.72 225.304 98.72C225.024 98.72 224.744 98.86 224.464 99C224.044 99.14 223.624 99.28 223.204 99.28C222.364 99.56 221.524 99.98 220.824 100.54C219.844 101.1 219.004 101.66 217.884 102.08C216.624 102.64 215.504 103.34 214.094 103.76C213.114 104.04 212.134 104.32 211.154 104.74C210.594 104.88 209.894 105.16 209.334 105.3C209.054 105.44 209.054 105.58 208.774 105.72C208.494 106 208.074 106.14 207.654 106.28C206.534 106.7 205.274 107.26 204.144 107.68C203.724 107.68 203.444 107.96 203.024 107.96C202.604 108.1 202.044 107.96 201.484 107.96C201.204 107.96 200.784 107.96 200.504 107.96C199.804 107.96 199.384 107.82 198.684 107.54C198.684 107.54 198.404 107.4 198.264 107.4C201.344 105.3 204.574 103.19 207.794 101.23C211.304 99.13 214.944 97.02 218.594 95.2C222.524 93.1 226.444 91.13 230.514 89.31C234.724 87.35 238.924 85.52 243.134 83.7C247.484 81.88 251.824 80.19 256.174 78.51C260.524 76.83 265.004 75.29 269.494 73.88C273.844 72.48 278.184 71.08 282.674 69.81C286.884 68.55 291.084 67.57 295.434 66.59C299.504 65.61 303.424 64.77 307.494 64.07C309.314 63.79 311.144 63.51 313.104 63.23C313.664 63.23 314.084 63.09 314.504 63.09C314.784 63.09 315.064 62.95 315.344 62.81L315.064 63.09C315.904 62.95 316.884 62.81 317.724 62.81C318.564 62.81 319.404 62.81 320.104 62.95C320.384 62.95 322.344 62.81 322.344 63.37C322.344 63.79 321.924 63.79 321.644 63.79C321.224 63.93 320.944 64.07 320.664 64.21C321.644 64.21 322.624 64.21 323.464 64.21C324.024 64.21 324.444 64.21 325.004 64.21C325.144 64.21 325.844 64.07 325.844 64.35C325.844 64.49 325.704 64.63 325.564 64.63C325.144 64.91 324.724 65.33 324.164 65.61C323.604 65.89 323.324 66.03 322.624 66.17C321.504 66.45 320.524 66.73 319.544 67.01C318.004 67.29 316.324 67.71 314.774 67.85C314.354 67.85 313.934 67.71 314.074 68.41C314.354 68.41 314.774 68.41 315.054 68.41C316.314 68.41 317.574 68.41 318.844 68.41C319.544 68.41 320.244 68.55 320.804 68.41C321.224 68.27 321.644 68.27 322.204 68.27C322.764 68.27 323.324 68.41 323.884 68.55C317.294 69.25 310.144 70.23 303.414 72.06C297.944 73.6 296.824 73.6 294.164 73.46C294.584 72.9 295.284 72.06 295.704 71.5C292.344 70.94 272.294 77.95 271.024 81.45H271.164C270.884 82.01 271.304 82.15 271.724 82.29C272.984 82.57 274.384 82.71 275.654 82.57C277.194 82.57 278.874 82.57 280.424 82.57C281.684 82.57 282.804 82.57 284.074 82.57C286.314 82.57 288.564 82.71 290.944 82.29C292.764 81.87 294.594 81.17 296.414 80.61C298.234 80.05 299.924 79.35 301.744 78.93C302.164 78.79 302.584 78.65 303.004 78.51C303.144 78.51 303.704 78.23 303.844 78.23C304.264 78.23 304.264 78.51 304.124 78.79C303.704 79.49 301.744 79.91 301.184 80.05C300.344 80.33 299.364 80.75 298.384 81.03C298.384 81.87 299.644 81.73 300.624 81.59C301.044 81.59 301.324 81.45 301.464 81.45C301.604 81.45 301.604 81.45 301.744 81.45C301.884 81.45 302.164 81.45 302.304 81.45C302.584 81.59 302.444 82.43 302.444 82.71C302.304 83.13 302.024 83.41 301.744 83.69C301.464 84.11 301.184 84.25 300.624 84.53C300.484 85.23 305.254 84.81 305.674 84.81C306.514 84.67 307.494 83.97 308.194 83.97C308.474 83.97 308.754 83.97 309.034 83.97C309.454 83.83 309.874 83.83 310.294 83.69C310.854 83.55 311.274 83.41 311.834 83.27C312.254 83.27 312.534 83.27 312.954 83.27C313.374 83.27 313.654 83.27 314.074 83.27C315.054 83.27 315.894 82.71 316.874 82.71C317.154 82.71 317.294 82.71 317.574 82.71C317.854 82.71 317.994 82.71 318.274 82.71C319.114 82.57 319.954 82.43 320.654 82.29C321.634 82.01 322.754 81.87 323.734 81.73C325.134 81.45 326.814 81.73 328.224 81.73C329.634 81.73 330.884 82.29 332.154 82.43C333.694 82.57 331.874 83.69 331.314 83.97C329.494 85.09 327.384 86.07 325.424 86.91C324.024 87.47 322.904 87.89 321.494 87.75C320.654 87.75 320.094 87.75 319.254 88.03C318.834 88.17 318.274 88.31 317.854 88.45C317.434 88.45 317.014 88.45 316.594 88.45C316.034 88.45 315.334 88.31 314.634 88.45C314.354 88.59 314.214 88.59 313.794 88.73C313.514 88.73 313.374 88.73 313.234 88.73C312.814 88.73 312.394 88.73 311.834 88.87C311.414 89.01 311.414 89.15 310.854 89.29H310.294C309.874 89.29 309.314 89.29 308.894 89.43C307.774 89.99 306.654 89.99 305.384 89.99C305.244 89.99 305.104 89.99 304.964 89.99L304.684 90.13C303.984 90.41 303.144 90.69 302.444 90.97C300.764 91.67 299.364 92.51 297.534 93.07C297.114 93.21 296.834 93.21 296.554 93.21C295.574 93.49 294.454 93.77 293.334 94.05C292.914 94.33 292.354 94.33 291.794 94.47C290.954 94.75 290.394 95.17 289.554 95.45C289.134 95.59 288.714 95.73 288.434 96.01C287.734 96.29 287.174 96.43 286.474 96.57C285.914 96.71 285.354 96.85 284.794 96.99C284.234 97.13 283.954 97.55 283.534 97.83C283.114 98.11 282.694 97.97 282.274 98.25C281.434 98.67 280.734 99.09 279.894 99.51C279.474 99.65 279.194 99.79 278.774 99.93C278.354 100.21 277.654 100.49 277.234 100.91C276.954 101.33 276.954 102.17 276.954 102.73V103.01C277.934 103.29 278.914 103.29 279.894 103.15C280.314 103.15 280.594 103.01 281.014 103.01C281.574 102.87 281.994 102.87 282.554 102.73C283.534 102.59 284.374 102.17 285.354 101.75C285.494 101.75 285.634 101.61 285.774 101.47C297.834 98.81 309.044 93.2 321.664 92.36C321.944 92.36 342.554 91.38 356.434 97.97C360.784 99.93 381.674 111.71 370.874 145.78L371.854 142.84C374.234 134.71 374.934 130.36 375.644 125.6V125.18C376.624 116.63 376.484 115.09 376.344 106.11C375.364 93.35 374.384 89.15 371.434 79.47L371.014 78.77C370.594 77.65 374.374 68.54 354.054 48.07C345.364 39.8 332.884 39.24 322.934 33.21C324.334 32.65 324.334 32.65 326.444 33.07C318.174 27.88 308.074 29 299.244 25.64C300.364 24.8 300.924 24.24 303.734 24.38C303.734 24.1 303.594 23.54 303.454 23.26C316.634 21.72 326.024 24.52 332.614 28.03C331.774 27.47 330.934 26.77 330.094 26.07C332.054 26.91 333.034 27.47 335.984 29.58L336.264 29.86L335.424 29.16C322.104 18.93 302.754 6.02997 243.734 29.86L239.244 28.32L234.194 30.98" fill="#FAD50A"/>
<path d="M191.354 33.63L193.454 31.53C192.484 32.37 191.924 32.93 191.354 33.63ZM356.514 42.04C356.374 41.9 356.374 41.76 356.234 41.76L356.374 41.9L356.514 42.04ZM321.464 44.01C319.644 43.17 318.524 42.61 317.254 42.33C316.554 42.19 315.854 42.05 315.014 41.91L315.154 42.05C315.994 42.61 315.994 42.61 321.044 43.87L321.464 44.01ZM377.684 97.99C376.284 85.79 375.584 83.13 372.914 73.45L371.234 68.82C367.304 58.45 362.964 51.86 358.754 45.27C357.354 43.31 357.354 43.31 355.674 41.2L355.534 41.06C349.224 33.21 346.424 30.83 339.554 25.08C340.814 25.92 340.814 25.92 342.494 27.32L341.654 26.62C323.844 11.2 306.184 6.42997 285.154 4.04997C287.394 3.62997 308.284 4.32997 328.894 17.09C308.984 4.60997 290.474 2.08997 280.524 1.24997C278.144 1.10997 275.474 1.10997 272.254 0.969971C263.284 0.969971 251.084 2.50997 235.104 7.69997V7.55997C235.104 7.55997 224.874 10.64 215.474 15.13C215.194 15.27 214.914 15.41 214.774 15.41L214.354 15.55C213.654 15.83 213.094 16.25 212.394 16.53C212.254 16.67 212.114 16.67 211.974 16.67C211.554 16.95 211.134 17.09 210.714 17.37C209.734 17.93 208.894 18.49 207.914 19.05C207.214 19.47 206.514 19.89 205.954 20.31L204.414 21.43C203.154 22.41 201.614 23.53 200.484 24.51C197.964 26.61 197.824 26.75 193.474 30.82C200.764 24.09 221.374 12.31 254.464 8.52997C252.924 9.78997 250.954 10.63 246.054 11.75C228.814 15.68 202.874 21.56 190.954 33.34L190.814 33.48C189.554 34.74 188.574 36 185.344 39.79C182.404 43.44 182.124 43.72 177.774 50.31L175.674 53.96C175.534 54.24 175.534 54.8 175.394 55.22C175.674 55.22 176.094 55.36 176.374 55.36C173.854 65.45 173.854 65.45 173.854 65.59C177.784 62.37 177.784 62.37 177.924 62.37C175.684 67.56 175.684 67.56 175.264 68.96V68.82C174.844 69.8 174.424 71.06 174.144 72.04C174.424 72.32 174.704 72.74 174.984 73.02C176.804 71.76 178.344 70.22 180.454 69.23L178.074 70.91C179.614 70.21 181.864 69.37 183.544 68.81C181.864 70.91 180.184 72.88 178.634 74.98C180.314 74 181.714 72.74 183.544 71.9C183.824 72.18 184.104 72.46 184.244 72.6C186.764 72.32 188.174 71.48 195.184 67.41L199.394 65.03C195.044 67.83 194.484 68.11 193.224 70.22C194.764 70.08 194.764 70.08 203.594 65.87C215.094 60.54 222.664 57.6 245.234 52.27C278.324 46.8 278.324 46.8 300.754 47.5C292.764 45.82 292.764 45.82 264.024 46.24C234.444 49.6 222.664 53.95 217.614 55.91C209.204 59.13 209.064 58.99 207.524 58.85C214.674 53.52 247.624 42.03 256.174 40.9C255.894 40.9 229.814 44.69 215.094 52.26C206.684 56.47 196.864 59.41 196.864 59.41C200.654 55.9 204.994 52.96 208.364 49.04C205.004 48.2 205.004 48.2 199.114 49.6C221.964 20.58 347.164 12.73 368.894 70.77C367.494 68.81 355.294 51.56 333.704 42.45C328.374 40.21 328.234 40.07 327.114 38.94C327.394 38.8 327.814 38.66 328.094 38.52C325.294 36.84 310.704 32.35 304.964 33.47C325.714 38.66 357.964 53.94 357.124 62.07C348.434 59.13 341.984 52.12 333.294 49.03C343.104 54.36 359.374 63.33 361.894 72.02C361.614 72.16 361.194 72.44 360.914 72.58C359.934 72.02 358.674 71.04 357.834 70.34V70.48C355.874 68.38 344.374 59.4 336.804 56.18C326.144 51.69 314.374 50.71 303.294 47.35C315.354 51.98 328.394 53.52 339.744 59.97C353.204 67.54 363.294 81.14 363.434 81.28C381.384 105.53 374.374 130.35 371.704 139.6L369.464 145.49L371.844 139.32C374.364 131.47 374.644 130.21 376.474 120.53C378.104 110.04 378.104 108.08 377.684 97.99ZM254.034 49.48C251.374 49.76 247.724 50.46 244.924 50.88C247.584 50.46 251.224 49.9 254.034 49.48ZM292.584 6.14996C289.924 5.86996 284.734 5.30997 277.864 5.16997C277.584 5.16997 277.164 5.16997 276.884 5.16997C285.434 4.88997 291.604 5.44998 298.054 6.84998C295.954 6.56998 294.964 6.42996 292.584 6.14996ZM193.884 30.97C193.744 31.25 193.464 31.39 193.324 31.53L193.464 31.39C193.604 31.25 193.744 31.11 193.884 30.97Z" fill="#F2940A"/>
<path d="M343.614 108.36C343.894 108.08 344.034 107.66 344.314 107.24C343.334 111.03 341.234 115.51 338.564 120.7C337.864 121.68 337.164 122.8 336.604 123.78C333.244 128.83 326.654 129.95 323.004 134.58C322.164 134.02 321.884 133.88 320.484 134.72C320.064 132.48 323.704 129.39 320.904 127.99C323.844 121.54 329.034 116.63 333.524 111.17C333.804 112.29 334.504 112.71 335.484 112.71C338.294 112.71 343.474 108.64 343.614 108.36ZM310.814 128.69C293.714 142.57 308.574 138.5 308.714 138.5C310.394 137.8 311.794 136.96 312.504 136.4C296.384 154.35 250.394 174.11 216.464 159.95C207.494 156.16 201.324 153.92 218.564 164.58C218.424 164.58 218.144 164.58 218.004 164.44C225.294 168.09 234.404 172.99 229.784 173.27C229.784 173.41 229.784 173.55 229.784 173.55C229.924 173.69 229.924 173.69 242.404 178.32C241.564 178.6 241.004 181.26 251.374 182.39C263.434 183.51 274.364 182.25 284.464 179.31C263.154 194.03 238.614 203.42 214.084 198.66C214.784 198.94 215.624 199.22 216.184 199.5C221.794 201.46 225.574 202.16 231.184 202.58C231.184 202.86 231.184 203.28 231.044 203.56C234.974 205.66 240.294 204.26 241.134 203.84C243.374 202.72 244.214 202.44 258.944 201.32C255.724 203.98 251.094 202.72 247.724 205.11C247.864 205.53 248.284 206.23 248.564 206.51C267.074 203.99 286.134 201.32 333.384 162.91C333.944 162.49 334.784 162.07 335.484 161.79L335.344 161.93C331.834 165.15 331.834 165.15 302.394 190.25C295.384 196.14 285.294 196.84 278.704 203.57C278.844 203.85 278.984 204.13 278.984 204.41L278.844 204.55L279.124 204.41C280.664 204.83 282.204 204.83 283.754 204.55C280.814 205.67 277.304 207.21 272.954 209.18C272.954 209.46 272.674 209.04 272.814 210.72C281.084 208.76 297.634 206.65 308.564 200.2C324.824 191.23 355.394 164.31 369.554 134.87C369.834 134.17 370.534 133.19 371.094 132.77V133.61C371.654 134.59 371.654 134.59 370.114 139.92C371.234 137.4 372.074 134.87 372.914 132.35C375.574 107.81 359.454 98.84 355.674 97.16C353.714 96.32 351.604 95.48 349.504 94.92C349.364 94.78 349.224 94.78 348.944 94.64C345.434 93.66 341.794 92.96 338.424 92.4C331.704 109.34 322.444 119.16 310.814 128.69Z" fill="url(#paint0_linear_152_243)"/>
<mask id="mask0_152_243" style="mask-type:luminance" maskUnits="userSpaceOnUse" x="207" y="92" width="167" height="119">
<path d="M343.614 108.36C343.894 108.08 344.034 107.66 344.314 107.24C343.334 111.03 341.234 115.51 338.564 120.7C337.864 121.68 337.164 122.8 336.604 123.78C333.244 128.83 326.654 129.95 323.004 134.58C322.164 134.02 321.884 133.88 320.484 134.72C320.064 132.48 323.704 129.39 320.904 127.99C323.844 121.54 329.034 116.63 333.524 111.17C333.804 112.29 334.504 112.71 335.484 112.71C338.294 112.71 343.474 108.64 343.614 108.36ZM310.814 128.69C293.714 142.57 308.574 138.5 308.714 138.5C310.394 137.8 311.794 136.96 312.504 136.4C296.384 154.35 250.394 174.11 216.464 159.95C207.494 156.16 201.324 153.92 218.564 164.58C218.424 164.58 218.144 164.58 218.004 164.44C225.294 168.09 234.404 172.99 229.784 173.27C229.784 173.41 229.784 173.55 229.784 173.55L229.504 173.41L229.784 173.55C229.924 173.69 229.924 173.69 242.404 178.32C241.564 178.6 241.004 181.26 251.374 182.39C263.434 183.51 274.364 182.25 284.464 179.31C263.154 194.03 238.614 203.42 214.084 198.66C214.784 198.94 215.624 199.22 216.184 199.5C221.794 201.46 225.574 202.16 231.184 202.58C231.184 202.86 231.184 203.28 231.044 203.56C234.974 205.66 240.294 204.26 241.134 203.84C243.374 202.72 244.214 202.44 258.944 201.32C255.724 203.98 251.094 202.72 247.724 205.11C247.864 205.53 248.284 206.23 248.564 206.51C267.074 203.99 286.134 201.32 333.384 162.91C333.944 162.49 334.784 162.07 335.484 161.79L335.344 161.93C331.834 165.15 331.834 165.15 302.394 190.25C295.384 196.14 285.294 196.84 278.704 203.57C278.844 203.85 278.984 204.13 278.984 204.41L278.844 204.55L279.124 204.41C280.664 204.83 282.204 204.83 283.754 204.55C280.814 205.67 277.304 207.21 272.954 209.18C272.954 209.46 272.674 209.04 272.814 210.72C281.084 208.76 297.634 206.65 308.564 200.2C324.824 191.23 355.394 164.31 369.554 134.87C369.834 134.17 370.534 133.19 371.094 132.77V133.61C371.654 134.59 371.654 134.59 370.114 139.92C371.234 137.4 372.074 134.87 372.914 132.35C375.574 107.81 359.454 98.84 355.674 97.16C353.714 96.32 351.604 95.48 349.504 94.92C349.364 94.78 349.224 94.78 348.944 94.64C345.434 93.66 341.794 92.96 338.424 92.4C331.704 109.34 322.444 119.16 310.814 128.69Z" fill="white"/>
</mask>
<g mask="url(#mask0_152_243)">
<path d="M191.074 93.36L374.604 77.38L386.244 209.87L202.714 225.99L191.074 93.36Z" fill="url(#paint1_linear_152_243)"/>
</g>
<path d="M365.074 103.87C360.864 120.27 355.964 127.84 348.674 139.06C344.604 145.23 336.614 146.63 332.134 152.38C331.014 151.82 330.734 151.68 329.054 152.52C328.634 149.72 333.124 145.93 329.474 144.25C335.504 131.21 348.964 123.08 353.164 108.78C351.624 110.74 350.364 113.13 348.814 115.23C350.634 108.92 353.444 103.03 354.844 96.58C354.564 96.44 354.144 96.3 353.864 96.16C353.444 96.72 353.024 97.7 352.464 98.82C343.634 120.55 331.994 133.03 317.414 145.09C296.524 162.19 314.614 157.15 314.754 157.15C316.854 156.31 318.544 155.19 319.524 154.63C294.564 182.39 211.144 213.94 172.734 160.1C173.154 160.66 173.574 161.36 173.854 161.92C183.104 176.08 183.104 176.08 204.274 189.12C200.344 188.42 197.544 185.33 193.754 184.21C193.754 184.35 202.724 195.99 229.644 199.07C258.244 202.29 266.374 200.19 274.934 197.81C282.224 195.85 288.954 195.15 288.954 195.15L288.814 195.29C267.644 201.74 267.644 201.74 244.094 203.28C239.464 203.56 235.124 202.58 230.774 201.6C226.564 200.62 222.364 199.64 218.014 199.78C218.014 199.92 218.014 200.06 218.014 200.2H217.734L218.014 200.34C218.294 200.48 218.294 200.48 233.434 206.23C232.454 206.65 227.964 207.21 209.324 199.22C209.464 199.36 231.754 210.02 244.514 211.28C286.294 215.35 316.154 195.16 345.184 175.67C345.184 175.81 345.184 175.95 345.184 176.23C345.604 176.23 346.024 176.37 346.304 176.37C346.024 177.07 346.024 177.07 342.944 180.72C349.814 175.25 353.314 166.56 360.614 161.37C359.914 164.45 337.344 200.77 286.864 212.54C289.244 212.26 290.084 212.12 292.754 211.42C289.244 212.4 289.244 212.54 287.704 212.96C288.684 212.82 288.684 212.82 293.314 211.84C290.514 213.24 287.424 213.8 279.714 215.35C323.314 207.78 355.424 182.96 369.864 145.39C371.824 138.94 372.664 136.28 373.514 132.07C374.604 117.89 369.974 109.2 365.074 103.87Z" fill="#0A3064"/>
<path d="M259.214 160.38C256.274 158.7 254.584 156.17 253.464 154.21C252.904 153.37 252.484 152.39 252.064 151.55L251.504 150.57C250.944 149.45 250.244 148.33 249.404 147.21C249.124 146.79 248.704 146.37 248.284 145.95L247.164 144.69C246.744 144.27 246.464 143.99 246.184 143.57C245.904 143.15 245.764 142.87 245.624 142.59C240.434 129.55 239.314 122.12 237.494 109.08C236.514 102.35 232.444 96.88 225.714 88.75C224.874 87.77 224.034 86.51 222.914 85.24C222.214 84.4 221.514 83.42 220.814 82.58C218.574 79.78 216.884 77.81 215.484 76.41C213.104 74.45 210.994 72.62 209.034 70.94C206.374 68.7 203.984 66.73 201.884 64.91C197.814 61.69 194.874 59.3 191.224 56.92C186.314 53.56 180.994 51.8699 175.524 51.8699C169.914 51.8699 165.854 53.69 164.444 54.67C159.674 57.89 156.174 59.8599 152.104 61.5399C149.164 62.7999 146.214 63.78 142.434 65.05C141.174 65.47 139.914 65.89 138.504 66.31C134.154 67.71 131.074 70.24 128.974 72.34C128.414 72.76 127.994 73.32 127.434 73.74C126.874 74.3 126.454 74.72 125.894 75.14C124.914 75.98 124.214 76.54 123.654 76.82C122.954 77.1 121.974 77.24 120.434 77.38C119.594 77.38 118.754 77.52 118.054 77.52C117.494 77.52 116.934 77.66 116.374 77.66C111.464 77.94 107.404 80.74 104.874 82.85C103.474 83.97 102.354 85.09 101.084 86.21L100.524 86.77C98.9844 88.17 98.0044 89.01 96.8744 89.71C93.3644 91.95 90.0044 92.3699 86.3544 92.6499C84.5344 92.7899 82.5644 93.07 80.4644 93.49C77.9444 94.05 75.6944 94.7499 73.3144 95.8699C70.6544 97.1299 67.9844 98.67 64.6244 101.06C63.2244 102.04 61.8244 103.02 60.4144 104.14C59.1544 104.98 58.0344 105.96 56.7644 106.8C51.2944 110.73 46.5344 113.25 41.4844 113.25C36.4344 113.25 32.7944 110.31 32.3744 105.68C31.9544 101.61 34.0544 97.5499 38.1244 94.1799L40.3644 92.36C42.0444 90.96 43.7244 89.6999 45.1344 88.4299C47.5144 86.3299 49.2044 84.64 50.4644 82.96C53.5444 78.89 54.3944 74.55 52.9844 69.22C51.7244 64.31 48.0744 61.09 41.6244 59.13C39.3844 58.43 36.9944 58.0099 34.7544 57.7299L34.0544 57.59C33.3544 57.45 32.7944 57.45 32.2344 57.31C31.5344 57.17 30.9744 57.03 30.6944 56.89C27.1844 55.35 19.6144 50.2999 18.0744 49.1799L17.5144 48.7599L17.0944 49.32C15.6944 51.28 14.5744 52.97 13.7344 59.84C12.8944 67.55 19.2044 76.8 29.9944 78.49C30.5544 78.63 31.1144 79.05 31.2544 79.61C31.3944 80.17 31.2544 80.8699 30.6944 81.1499C19.1944 90.2599 16.8144 94.05 16.1144 104.28C15.6944 110.59 17.9344 116.76 22.1444 121.24C26.7744 126.15 33.5044 128.67 41.4944 128.67C43.5944 128.67 45.8444 128.53 48.2244 128.11H48.5044C48.7844 128.11 49.2044 128.25 49.4844 128.39C49.7644 128.67 50.0444 129.09 50.0444 129.51C50.6044 136.52 51.8644 142.27 53.4044 144.93C53.8244 145.63 53.6844 146.33 53.1244 146.89C52.7044 147.31 51.8644 147.73 50.8844 148.15C48.3644 149.13 44.7144 149.69 41.0744 149.69C38.8344 149.69 37.0044 151.23 35.6044 154.74C35.1844 155.86 34.7644 156.98 34.4844 158.1L34.3444 158.38C34.2044 158.94 33.9244 159.5 33.7844 159.92C33.6444 160.34 33.5044 160.76 33.2244 161.04C32.8044 161.88 32.1044 162.72 31.1244 163.56C30.8444 163.84 30.4244 163.98 30.1444 163.98H29.8644C29.4444 163.84 29.0244 163.56 28.7444 163.14C27.6244 161.18 25.8044 159.78 23.4144 159.35H23.1344C19.6244 159.35 13.4644 162.29 11.2144 167.9C10.9344 168.46 10.5144 168.74 9.95444 168.88H9.65444C6.85444 169.16 5.02444 170.42 4.04444 172.95C3.62444 174.07 3.34444 175.19 3.20444 176.31L3.06444 177.15C2.92444 177.99 2.78444 178.83 2.50444 179.67C2.36444 180.37 2.08444 180.93 1.66444 181.63C1.52444 181.91 1.24444 182.33 1.10444 182.61C0.964444 182.75 0.824444 183.03 0.684444 183.17C0.124444 184.29 -0.295556 185.55 0.264444 187.52C0.544444 188.36 1.24444 189.2 2.36444 189.9C3.20444 190.32 4.46444 190.74 5.72444 191.16C8.24444 191.72 10.6344 192 11.0544 192C11.3344 192 11.7544 191.86 12.0344 191.72C12.3144 191.58 12.4544 191.44 12.7344 191.16C13.0144 190.88 13.4344 190.88 13.7144 190.88H13.9944L15.1144 191.16C16.0944 191.3 17.2144 191.58 18.3344 191.86H18.4744C19.5944 192.14 20.7144 192.28 21.5544 192.42C21.9744 192.56 22.3944 192.56 22.8144 192.7C23.2344 192.7 23.5144 192.7 23.6544 192.7C28.5644 192.42 30.5244 190.6 31.9244 188.77C32.3444 188.21 32.6244 187.65 33.0444 187.09L33.6044 186.11L34.0244 185.41C34.4444 184.71 34.8644 184.15 35.2844 183.59C35.5644 183.17 35.9844 182.89 36.5444 182.89C36.6844 182.89 36.8244 182.89 36.9644 182.89C37.5244 183.03 38.0844 183.17 38.5044 183.17C39.6244 183.31 40.6044 183.45 41.1644 183.45C41.4444 183.45 41.7244 183.45 42.1444 183.45C46.7744 183.45 50.1344 180.93 52.9444 178.4L53.9244 177.56C54.3444 177.14 54.7644 176.86 55.1844 176.44C55.7444 175.88 56.4444 175.32 57.2844 174.9C58.6844 173.92 59.8044 173.5 60.9344 173.5H61.2144C62.3344 173.5 66.5444 173.92 73.5544 174.9C73.8344 175.04 74.1144 175.04 74.5344 175.04C76.0744 175.04 78.1844 174.48 80.5644 173.36C82.2444 172.52 84.2144 171.54 86.3144 170.28C86.7344 170 87.2944 169.72 87.8544 169.44L87.9944 169.3C88.5544 169.02 89.2544 168.74 89.8144 168.46C90.9344 167.9 92.6144 166.92 94.0244 165.1C94.8644 164.12 95.8444 162.02 96.9644 159.77L98.0844 157.39C98.7844 156.13 99.3444 154.73 100.044 153.32C100.324 152.76 100.884 152.48 101.444 152.48H101.864C104.104 152.48 106.634 152.2 108.874 151.78C109.854 151.64 110.834 151.5 111.814 151.36C113.914 151.08 115.744 150.8 117.004 150.66C117.284 150.66 118.264 150.8 119.384 150.8L122.184 150.94C125.694 151.08 128.634 151.22 131.014 151.22C132.414 151.22 133.674 151.22 134.664 151.08C136.484 150.94 138.314 150.66 139.714 150.24C140.134 150.1 140.554 149.96 140.974 149.82C141.114 149.68 141.394 149.68 141.534 149.68C141.954 149.68 142.374 149.82 142.654 150.1C143.354 150.8 144.194 151.64 145.034 152.34C145.594 152.76 145.734 153.46 145.454 154.02C145.314 154.58 144.754 155 144.054 155.14C143.774 155.14 143.494 155.14 143.214 155.28C142.234 155.42 140.414 155.84 139.564 156.96C139.284 157.38 138.864 157.52 138.304 157.52C138.164 157.52 137.884 157.52 137.744 157.38C137.604 157.24 137.324 157.24 137.044 157.1C136.624 156.96 136.064 156.96 135.784 156.96H135.644H135.084H134.244H133.824C132.424 156.96 129.194 156.96 126.394 157.38C124.714 157.66 123.314 158.08 122.324 158.64C121.344 159.2 120.364 160.04 120.364 161.72C120.504 164.66 124.574 172.52 127.374 175.32C127.934 175.88 129.754 176.44 131.724 176.44C131.864 176.44 132.144 176.44 132.424 176.44H132.564C133.124 176.44 133.684 176.72 133.964 177.28C136.764 182.89 141.814 186.67 146.304 186.67H146.584C150.934 186.53 162.424 182.32 170.554 178.4C170.694 178.4 170.834 178.4 170.834 178.26C171.114 178.12 171.394 178.12 171.674 178.12C172.094 177.98 172.654 177.98 173.214 177.98L174.054 177.84C175.874 177.56 177.844 177.28 179.384 176.58C180.784 175.88 182.744 173.36 184.434 169.99C184.714 169.43 185.274 169.15 185.834 169.15H185.974C186.534 169.29 187.094 169.71 187.374 170.27C187.514 170.97 187.794 171.53 188.074 172.09C189.474 174.75 192.004 176.02 195.364 176.02C195.504 176.02 195.784 176.02 195.924 176.02C198.304 175.88 200.974 175.18 203.214 174.34L204.474 173.92C206.434 173.22 208.264 172.66 210.084 172.38C210.644 172.24 211.344 172.24 212.184 172.24C212.604 172.24 212.884 172.24 213.304 172.24C214.004 172.24 214.704 172.38 215.544 172.38C216.104 172.38 216.524 172.52 217.084 172.52C217.784 172.52 218.484 172.66 219.324 172.66C221.424 172.66 223.114 172.38 224.654 171.68C226.754 170.84 228.444 169.58 229.564 168.74L229.984 168.46C230.264 168.18 230.544 168.18 230.824 168.18C231.244 168.18 231.524 168.32 231.804 168.6C234.884 171.26 241.334 175.89 251.014 175.75H251.994C254.234 175.61 256.064 174.91 257.044 173.65C257.744 172.81 257.884 171.69 257.604 170.71C257.464 170.29 257.604 169.87 257.744 169.45C258.024 169.03 258.304 168.89 258.724 168.75C260.264 168.47 261.524 167.91 262.514 167.07C263.354 166.37 263.914 165.25 263.914 164.27C263.914 163.57 263.634 163.15 263.214 162.59C263.004 162.34 262.304 162.06 259.214 160.38ZM190.794 148.46C189.814 149.72 188.134 150.14 186.724 152.67C183.784 151.55 183.364 147.76 182.794 146.08C185.034 145.66 190.504 144.68 193.454 144.12C192.204 145.65 191.354 146.64 190.794 148.46Z" fill="white"/>
<path d="M256.974 162.9C251.644 159.82 249.404 153.93 246.174 149.16C245.054 147.48 242.954 146.36 241.824 144.67C237.894 134.15 234.674 123.78 233.694 111.72C232.854 108.78 232.294 105.69 230.614 102.89C225.844 95.04 219.534 87.89 213.374 80.6C212.814 80.04 212.814 80.04 211.694 78.92L190.524 61.39C187.864 59.43 184.914 58.17 181.974 56.9C177.484 55.22 171.454 55.64 167.114 57.46C162.484 59.84 158.424 63.35 153.654 65.03C146.644 68.11 138.794 68.82 132.764 74.14C129.254 77.22 126.314 81.85 121.124 81.15C115.374 80.87 110.184 82.97 105.704 86.62C101.774 90.13 97.9944 94.33 92.9444 95.31C88.4544 97.13 82.9944 96.29 78.5044 97.97C71.2144 99.79 65.4644 105.54 59.4344 109.89C53.2644 113.4 47.3744 117.32 39.6644 117.18C34.6144 116.9 29.8544 113.39 28.1644 108.49C26.6244 102.88 28.3044 97.27 32.6544 93.49C37.1444 88.02 44.4344 84.8 48.0744 78.49C49.8944 75.13 49.6144 69.8 47.2344 66.71C42.4644 61.8 35.7344 61.66 29.5644 60.12C25.6344 59 22.5544 56.05 19.0444 54.09C17.6444 56.05 17.2244 58.44 17.5044 60.82C18.2044 66.43 22.5544 71.62 27.8744 73.58C30.9544 74.98 34.6044 74 37.8244 74.7C38.6644 75.12 39.6444 75.96 39.6444 76.94C39.5044 77.78 39.3644 78.76 38.5244 79.32C33.4744 83.53 28.2944 87.59 24.0844 92.78C19.5944 97.69 19.0344 106.1 21.4244 112.13C23.9444 119.14 31.2344 123.63 38.2444 124.61C43.2944 125.45 47.9144 124.05 52.5444 123.07C53.1044 123.07 53.3844 123.77 53.6644 124.05C54.0844 128.12 53.5244 131.76 54.3644 135.55C55.2044 139.06 56.3244 141.44 57.5844 144.8C57.7244 145.92 57.5844 147.18 56.7444 148.16C54.0844 150.12 51.4144 151.52 48.6144 152.65L41.6044 153.07L40.2044 153.77C37.6844 156.85 37.5444 159.94 35.8544 163.3C33.7544 166.81 29.8244 168.63 26.4644 170.59C25.3444 172.27 24.2244 174.1 22.6744 175.36C21.5544 176.34 20.1544 176.76 18.6044 176.9C16.2244 179.7 15.6644 183.49 15.0944 187.27C19.0244 187.69 23.0844 189.79 27.0144 187.69C30.3744 186.15 31.0844 182.08 33.4644 179.7C35.4244 177.6 38.3744 179.14 40.7544 179.56C44.2644 179.7 46.7844 177.18 49.7244 176.05C51.8244 174.79 53.5144 172.4 55.6144 171C59.6844 169.04 65.4244 170.02 69.7744 170.86C73.1344 171.7 76.7844 171.14 79.7244 169.88C82.5244 168.2 85.0544 165.95 88.1344 165.25C90.9344 163.85 92.2044 160.76 93.4644 158.1C94.3044 155.72 96.6844 153.75 96.5444 151.09C95.8444 150.53 95.0044 149.13 93.8844 149.27C92.4844 151.09 91.5044 153.06 90.0944 154.88C83.6444 163.71 78.5944 164.55 65.4144 164.55C55.6044 164.13 46.9044 167.21 40.1744 174.78C39.7544 175.06 39.0544 174.92 38.7744 174.5C38.4944 173.38 39.3344 171.7 39.8944 170.85C45.9244 162.3 55.1744 160.33 64.9944 160.19C70.3244 159.77 75.5144 158.93 79.9944 156.54C85.0444 154.02 88.5444 149.95 90.7944 144.9C91.9144 139.29 92.3344 133.12 93.8744 127.8C94.0144 127.24 95.4144 126.82 95.8344 127.1C96.3944 127.24 97.5144 127.66 97.5144 128.36C96.5344 133.97 94.7144 140.42 96.9544 145.75C101.304 151.36 109.154 148.27 115.044 147.99C121.074 147.43 125.984 147.99 131.864 148.27C134.664 148.13 136.774 148.83 139.014 147.15C139.574 146.17 139.854 144.77 139.714 143.79C139.574 142.25 138.174 141.27 139.714 139.86C140.134 139.44 141.534 139.72 141.814 140.14C142.654 142.38 142.934 144.77 144.474 146.73C147.274 150.38 151.484 153.32 155.414 155.28C159.204 157.8 162.284 161.45 162.564 166.08C162.564 168.46 160.464 170.01 158.634 171.13C155.554 172.67 152.324 173.93 148.684 173.51C143.914 171.27 142.654 166.22 139.574 162.57C137.894 160.75 135.504 160.47 133.124 160.61C130.464 160.89 127.934 161.03 125.554 161.73C124.994 162.29 124.714 163.13 124.854 163.83C126.534 166.77 128.214 169.58 130.044 172.52C132.144 173.78 134.954 171.82 136.774 174.06C138.314 176.44 139.294 179.11 141.544 180.93C143.784 182.89 147.154 183.73 150.094 182.47C156.684 180.37 163.274 178.26 169.444 174.9H171.544C174.064 174.62 176.874 174.76 178.554 172.94C180.514 170.14 182.204 167.47 183.604 164.39C185.144 162.29 184.444 159.2 183.744 156.96C180.664 153.17 178.974 148.97 177.434 144.62C175.894 144.2 174.634 143.36 172.804 143.36C171.964 143.64 170.844 143.5 170.424 144.48L177.434 158.5C177.854 159.62 178.414 161.16 178.134 162.57C177.154 165.51 175.614 168.32 173.224 170.56C172.804 170.84 172.244 171.12 171.824 170.42C172.664 167.34 174.064 164.11 173.924 160.61L167.054 148.13C166.214 146.45 164.814 144.91 164.954 142.94C164.954 142.1 165.794 141.4 166.494 141.12C169.574 140.14 173.224 140.28 175.464 137.9C178.544 133.13 179.114 128.51 179.954 122.9C180.094 122.48 180.794 121.78 181.354 121.78C181.914 121.64 182.474 122.34 182.754 122.62C183.594 128.79 182.474 134.96 178.824 139.86C178.684 140.42 178.404 141.26 179.104 141.68C182.464 142.8 186.114 141.68 188.914 140.14C192.564 140.28 195.924 139.3 199.284 138.74C199.704 138.88 199.984 139.3 199.984 139.58C197.744 142.1 196.474 144.91 195.914 148.13C193.254 150.93 189.324 153.32 189.184 157.38C189.604 159.34 191.284 157.52 192.544 157.66C193.104 157.66 193.384 158.22 193.384 158.78L190.724 162.71C189.324 165.09 191.004 167.76 191.004 170C191.704 171.82 193.804 172.66 195.634 172.66C199.704 172.52 203.204 170.98 206.854 169.72C210.784 168.04 215.684 168.18 220.034 168.88C224.244 168.6 227.324 165.8 230.554 162.99C232.234 162.99 233.774 164.11 234.904 165.37C239.674 170.56 245.984 172.8 253.134 172.66L253.694 172.38C254.114 171.96 253.974 171.12 253.414 170.84L249.204 168.74C246.264 166.92 242.614 164.39 241.634 161.03C240.794 158.09 239.114 154.86 237.284 152.06C236.584 150.66 235.184 149.54 234.624 147.99C234.764 147.85 235.044 147.57 235.184 147.57C239.814 149.11 242.614 153.74 244.714 157.94C248.074 162.71 252.984 166.63 259.434 165.65L259.994 165.23C260.274 164.95 260.134 164.39 259.994 164.11L256.974 162.9ZM186.734 99.95C186.594 99.95 186.454 99.95 186.454 99.95V100.09C186.174 100.37 185.754 100.51 185.334 100.23L185.194 100.09V99.95C184.494 96.44 183.654 92.66 182.254 89.15L181.414 87.75L181.134 87.33L180.434 86.35C179.874 85.51 179.314 84.25 180.014 82.84L180.154 82.7C180.854 82 181.974 82 182.674 82.28H182.814C184.354 83.26 185.334 85.08 186.034 86.35C186.874 88.45 187.434 91.12 187.434 93.78C187.434 95.88 187.154 97.99 186.594 99.95H186.734ZM220.944 158.97C219.124 159.53 217.294 159.81 215.194 159.67H215.054L214.634 159.53L214.214 159.25C214.074 159.11 213.654 158.69 213.934 158.27C214.774 155.89 217.014 153.22 219.964 152.66H220.244H220.664L221.364 152.8C221.644 152.94 222.204 153.08 222.344 153.92C222.344 154.34 222.484 154.76 222.484 155.32C222.344 156.59 222.064 157.99 220.944 158.97ZM231.874 134.58L231.594 135.28L231.314 136.12C231.034 136.82 230.614 137.24 230.054 137.38C229.634 137.52 229.354 137.38 229.074 137.24C228.794 137.1 228.654 136.68 228.654 136.26V135.42L228.374 132.62C228.094 131.36 227.814 130.38 227.254 129.54L225.994 128.14L224.594 126.6C223.614 125.48 222.634 125.06 221.654 125.06C220.814 125.34 220.254 125.76 219.414 126.6L218.434 127.72L217.594 128.84C217.314 129.4 216.614 128.98 216.614 128.98H216.474V128.84C216.334 128.28 216.194 127.86 216.194 127.3C216.194 126.46 216.474 125.62 216.754 125.06L217.454 123.52L218.294 121.84L218.434 121.7C218.714 121.42 218.854 121 219.134 120.3L219.414 119.74L219.834 118.48C220.534 116.94 221.654 116.52 223.344 117.08C224.604 117.78 225.304 118.76 226.004 119.74L226.424 120.44L226.984 121.28L228.104 122.54C231.044 125.76 232.454 128.85 232.454 131.93C232.154 132.9 232.014 133.74 231.874 134.58Z" fill="#DB0A40"/>
<path d="M19.6144 172.99C22.4144 171.31 24.1044 168.36 25.6444 165.7C25.3644 164.72 24.3844 164.02 23.5444 163.32C22.9844 162.9 22.1444 163.18 21.5844 163.46C19.6244 165.14 17.5144 166.54 15.4144 167.81C14.5744 168.37 14.8544 169.77 14.7144 170.75C14.7144 171.59 15.8344 172.29 16.3944 172.85C17.3644 173.27 18.6344 173.41 19.6144 172.99Z" fill="#DB0A40"/>
<path d="M10.2144 173.27C8.81442 173.97 7.27442 175.37 6.85442 176.92C6.43442 179.72 6.99442 182.39 4.75442 184.49C4.61442 185.05 4.05442 185.61 4.61442 186.17C6.57442 186.73 8.40442 187.57 10.9244 187.85C12.0444 184.34 12.7444 180.56 14.0044 177.48V176.64C13.1644 175.38 12.0444 173.69 10.2144 173.27Z" fill="#DB0A40"/>
<path d="M145.934 163.74C147.754 165.7 147.614 168.79 149.724 170.33C152.384 170.75 154.774 169.77 156.874 168.09C157.994 167.11 156.314 165.85 156.174 164.73C155.054 163.05 155.754 159.68 152.954 159.54C150.014 159.96 147.204 160.1 144.404 160.1L143.564 160.66C142.994 162.2 145.374 162.2 145.934 163.74Z" fill="#DB0A40"/>
<defs>
<linearGradient id="paint0_linear_152_243" x1="217.465" y1="151.542" x2="363.187" y2="151.542" gradientUnits="userSpaceOnUse">
<stop stop-color="#1985C3"/>
<stop offset="0.436" stop-color="#1983C1"/>
<stop offset="0.593" stop-color="#197EBA"/>
<stop offset="0.705" stop-color="#1A73AF"/>
<stop offset="0.795" stop-color="#1A659E"/>
<stop offset="0.873" stop-color="#1B5288"/>
<stop offset="0.94" stop-color="#1C3B6D"/>
<stop offset="0.955" stop-color="#1C3566"/>
<stop offset="1" stop-color="#1C3566"/>
</linearGradient>
<linearGradient id="paint1_linear_152_243" x1="207.779" y1="158.726" x2="368.969" y2="144.626" gradientUnits="userSpaceOnUse">
<stop stop-color="#1985C3"/>
<stop offset="0.436" stop-color="#1983C1"/>
<stop offset="0.593" stop-color="#197EBA"/>
<stop offset="0.705" stop-color="#1A73AF"/>
<stop offset="0.795" stop-color="#1A659E"/>
<stop offset="0.873" stop-color="#1B5288"/>
<stop offset="0.94" stop-color="#1C3B6D"/>
<stop offset="0.955" stop-color="#1C3566"/>
<stop offset="1" stop-color="#1C3566"/>
</linearGradient>
</defs>
</svg>
