<svg width="2501" height="2501" viewBox="0 0 2501 2501" fill="none" xmlns="http://www.w3.org/2000/svg">
<g clip-path="url(#clip0_153_329)">
<path fill-rule="evenodd" clip-rule="evenodd" d="M127.157 0.410645C57.4122 0.410645 0.878906 75.0329 0.878906 167.055V2333.74C0.878906 2425.79 57.4122 2500.41 127.157 2500.41H2374.59C2444.33 2500.41 2500.88 2425.79 2500.88 2333.74V167.055C2500.88 75.0329 2444.33 0.410645 2374.59 0.410645H127.157Z" fill="#D52B1E"/>
<path fill-rule="evenodd" clip-rule="evenodd" d="M1248.32 1117.03C1282.33 865.494 1394.47 411.822 1608.33 411.822C1858.01 411.822 2151.37 1250.51 2151.3 1944.86H1921.06C1921.06 1216.59 1742.68 560.4 1614.32 560.372C1480.43 560.361 1363.1 1006.72 1363.1 1857.14H1133.17C1133.17 1006.72 1016.54 560.372 881.934 560.372C753.818 560.372 575.568 1216.71 575.568 1944.86H345.323C345.54 1249.91 638.157 411.738 888.279 411.822C1101.85 411.894 1214.02 865.438 1248.32 1117.03Z" fill="#FDC82F"/>
<path fill-rule="evenodd" clip-rule="evenodd" d="M2228.41 1885.63H2238.93C2247.76 1885.63 2255.86 1885.2 2255.86 1874.92C2255.86 1866.28 2248.51 1864.98 2241.67 1864.98H2228.41V1885.63ZM2218.35 1856.81H2243.35C2258.7 1856.81 2265.91 1862.9 2265.91 1875.34C2265.91 1887.12 2258.54 1892.01 2248.98 1893.03L2267.4 1921.71H2256.61L2239.06 1893.81H2228.41V1921.71H2218.35V1856.81ZM2239.94 1936.71C2265.44 1936.71 2285.27 1916.22 2285.27 1889.07C2285.27 1862.42 2265.44 1841.94 2239.94 1841.94C2214.07 1841.94 2194.33 1862.42 2194.33 1889.07C2194.33 1916.22 2214.07 1936.71 2239.94 1936.71ZM2239.94 1833.77C2270.07 1833.77 2295.32 1857.67 2295.32 1889.07C2295.32 1920.94 2270.07 1944.86 2239.93 1944.86C2209.65 1944.86 2184.21 1920.94 2184.21 1889.07C2184.21 1857.67 2209.65 1833.77 2239.93 1833.77H2239.94Z" fill="#FDC82F"/>
</g>
<defs>
<clipPath id="clip0_153_329">
<rect width="2500" height="2500" fill="white" transform="translate(0.878906 0.410645)"/>
</clipPath>
</defs>
</svg>
