<svg width="2500" height="1950" viewBox="0 0 2500 1950" fill="none" xmlns="http://www.w3.org/2000/svg">
<g clip-path="url(#clip0_153_253)">
<path fill-rule="evenodd" clip-rule="evenodd" d="M1039.65 1474.78L1039.7 1942.74H1171.84V1474.79L1039.65 1474.78ZM7.62939e-06 1474.16V1942.74H133.335V1586.93L236.63 1586.96C270.845 1586.96 295.21 1595.48 311.698 1613.07C332.612 1635.34 341.138 1671.26 341.138 1736.98V1942.74H470.323V1683.85C470.323 1499.07 352.539 1474.14 237.305 1474.14L7.62939e-06 1474.16ZM1252.44 1474.79V1942.74H1466.81C1581.02 1942.74 1618.28 1923.74 1658.6 1881.16C1687.1 1851.26 1705.52 1785.63 1705.52 1713.91C1705.52 1648.14 1689.93 1589.45 1662.74 1552.91C1613.77 1487.57 1543.23 1474.79 1437.93 1474.79H1252.44ZM1383.54 1576.68H1440.37C1522.8 1576.68 1576.13 1613.7 1576.13 1709.76C1576.13 1805.84 1522.8 1842.86 1440.37 1842.86H1383.54V1576.68ZM849.101 1474.79L738.805 1845.67L633.11 1474.82L490.449 1474.79L641.386 1942.74H831.875L983.999 1474.79H849.114H849.101ZM1767.01 1942.74H1899.19V1474.83L1766.98 1474.79L1767.01 1942.74ZM2137.5 1474.96L1952.95 1942.58H2083.27L2112.47 1859.92H2330.86L2358.49 1942.58H2500L2314.04 1474.92L2137.5 1474.96ZM2223.29 1560.28L2303.35 1779.34H2140.71L2223.29 1560.28Z" fill="#1A1919"/>
<path fill-rule="evenodd" clip-rule="evenodd" d="M864.927 378.637V266.216C875.97 265.432 887.027 264.865 898.092 264.516C1205.57 254.852 1407.29 528.71 1407.29 528.71C1407.29 528.71 1189.43 831.308 955.822 831.308C922.169 831.308 892.067 825.895 864.927 816.782V475.881C984.624 490.333 1008.69 543.212 1080.67 663.17L1240.72 528.223C1240.72 528.223 1123.9 374.986 926.945 374.986C905.505 374.986 885.029 376.486 864.927 378.637ZM864.927 7.27129V175.196C875.953 174.321 887.004 173.621 898.092 173.221C1325.69 158.82 1604.26 523.898 1604.26 523.898C1604.26 523.898 1284.27 912.977 950.934 912.977C920.394 912.977 891.804 910.164 864.927 905.401V1009.2C887.904 1012.12 911.706 1013.85 936.558 1013.85C1246.77 1013.85 1471.1 855.435 1688.34 667.933C1724.33 696.773 1871.79 766.928 1902.11 797.668C1695.55 970.581 1214.2 1109.94 941.321 1109.94C915.807 1109.85 890.313 1108.52 864.927 1105.97V1251.85H2043.97V7.25879H864.94L864.927 7.27129ZM864.927 816.782V905.401C578.006 854.235 498.375 556.012 498.375 556.012C498.375 556.012 636.135 403.376 864.927 378.637V475.881C864.752 475.881 864.627 475.831 864.477 475.831C744.418 461.405 650.611 573.589 650.611 573.589C650.611 573.589 703.165 762.428 864.927 816.782ZM355.339 543.074C355.339 543.074 525.377 292.155 864.927 266.216V175.196C488.849 205.374 163.175 523.885 163.175 523.885C163.175 523.885 347.601 1057.15 864.927 1105.97L864.94 1009.21C485.311 961.43 355.339 543.074 355.339 543.074Z" fill="#76B900"/>
</g>
<defs>
<clipPath id="clip0_153_253">
<rect width="2500" height="1950" fill="white"/>
</clipPath>
</defs>
</svg>
