<svg width="64" height="64" viewBox="0 0 64 64" fill="none" xmlns="http://www.w3.org/2000/svg">
<g opacity="0.2">
<path d="M32 61C47.464 61 60 48.464 60 33C60 17.536 47.464 5 32 5C16.536 5 4 17.536 4 33C4 48.464 16.536 61 32 61Z" fill="black"/>
<path d="M59 40H47L59 52V40Z" stroke="black" stroke-width="2" stroke-linejoin="round"/>
</g>
<path d="M7.75134 17.9999C11.4644 11.5688 17.5801 6.87612 24.7531 4.95413C31.9261 3.03215 39.5688 4.03833 45.9999 7.75134C52.4311 11.4643 57.1239 17.58 59.046 24.753C60.968 31.926 59.9619 39.5688 56.2489 45.9999L31.9999 31.9999L7.75134 17.9999Z" fill="#1985C3"/>
<path d="M56.249 46C53.7915 50.2566 50.2567 53.7913 46.0002 56.2488C41.7436 58.7063 36.9151 60.0001 32 60C27.0849 60 22.2565 58.7062 17.9999 56.2487C13.7434 53.7912 10.2087 50.2566 7.75119 46C5.29371 41.7434 3.99996 36.915 4 32C4.00004 27.0849 5.29384 22.2565 7.75139 18" fill="#0A3064"/>
<path d="M32 54C44.1503 54 54 44.1503 54 32C54 19.8497 44.1503 10 32 10C19.8497 10 10 19.8497 10 32C10 44.1503 19.8497 54 32 54Z" fill="white"/>
<path opacity="0.2" d="M32 10C26.1652 10 20.5695 12.3179 16.4437 16.4437C12.3179 20.5695 10 26.1652 10 32C10.0098 32.1668 10.0214 32.3335 10.035 32.5C10.1655 26.7584 12.5361 21.2954 16.6403 17.2781C20.7445 13.2608 26.2569 11.0077 32 11C37.7057 11.002 43.1874 13.2206 47.2883 17.1875C51.3893 21.1545 53.7886 26.5596 53.98 32.262C53.9872 32.1747 53.9939 32.0874 54 32C54 26.1652 51.6822 20.5695 47.5564 16.4437C43.4306 12.3179 37.8348 10 32 10Z" fill="black"/>
<path opacity="0.2" d="M5 14V26H17L5 14Z" fill="black" stroke="black" stroke-width="2" stroke-linejoin="round"/>
<path d="M59 39H47L59 51V39Z" fill="#0A3064" stroke="#0A3064" stroke-width="2" stroke-linejoin="round"/>
<path d="M5 13V25H17L5 13Z" fill="#1985C3" stroke="#1985C3" stroke-width="2" stroke-linejoin="round"/>
<path opacity="0.2" d="M32 4C22.95 4.038 14.416 8.366 9.193 15.756L5.707 12.293C5.519 12.106 5.265 12 5 12C4.869 12 4.739 12.026 4.617 12.076C4.244 12.231 4 12.596 4 13V14C4 13.596 4.244 13.231 4.617 13.076C4.991 12.921 5.421 13.007 5.707 13.293L9.24 16.826C14.469 9.437 22.948 5.031 32 5C47.17 5.004 59.577 17.088 59.982 32.252L60 32C60 16.536 47.464 4 32 4ZM10.035 32.5C10.0214 32.6665 10.0098 32.8332 10 33C10 38.8348 12.3179 44.4306 16.4437 48.5564C20.5695 52.6822 26.1652 55 32 55C35.8029 54.9959 39.5399 54.0061 42.8462 52.1271C46.1525 50.2481 48.9153 47.5441 50.865 44.279L50.457 43.871C48.4724 46.9676 45.7432 49.5172 42.5188 51.2867C39.2945 53.0562 35.678 53.9891 32 54C26.2569 53.9923 20.7445 51.7392 16.6403 47.7219C12.5361 43.7046 10.1655 38.2416 10.035 32.5ZM47 38C46.8262 38.0035 46.6562 38.0522 46.507 38.1414C46.3577 38.2306 46.2343 38.3571 46.1489 38.5085C46.0635 38.66 46.019 38.8311 46.0199 39.005C46.0208 39.1788 46.067 39.3494 46.154 39.5C46.24 39.3509 46.3631 39.2265 46.5113 39.1389C46.6596 39.0513 46.8279 39.0035 47 39H59C59.2652 39 59.5196 39.1054 59.7071 39.2929C59.8946 39.4804 60 39.7348 60 40V39C60 38.7348 59.8946 38.4804 59.7071 38.2929C59.5196 38.1054 59.2652 38 59 38H47Z" fill="white"/>
<g filter="url(#filter0_d_161_146)">
<path d="M33.136 32.714V20H28V34.844L36.908 43.752L40.537 40.123L33.136 32.714Z" fill="#0A3064"/>
</g>
<defs>
<filter id="filter0_d_161_146" x="24" y="20" width="20.537" height="31.752" filterUnits="userSpaceOnUse" color-interpolation-filters="sRGB">
<feFlood flood-opacity="0" result="BackgroundImageFix"/>
<feColorMatrix in="SourceAlpha" type="matrix" values="0 0 0 0 0 0 0 0 0 0 0 0 0 0 0 0 0 0 127 0" result="hardAlpha"/>
<feOffset dy="4"/>
<feGaussianBlur stdDeviation="2"/>
<feComposite in2="hardAlpha" operator="out"/>
<feColorMatrix type="matrix" values="0 0 0 0 0 0 0 0 0 0 0 0 0 0 0 0 0 0 0.25 0"/>
<feBlend mode="normal" in2="BackgroundImageFix" result="effect1_dropShadow_161_146"/>
<feBlend mode="normal" in="SourceGraphic" in2="effect1_dropShadow_161_146" result="shape"/>
</filter>
</defs>
</svg>
