<svg width="1729" height="2500" viewBox="0 0 1729 2500" fill="none" xmlns="http://www.w3.org/2000/svg">
<g clip-path="url(#clip0_153_317)">
<path d="M0 0.213379H1729V2499.79H0V0.213379Z" fill="#E31937"/>
<path d="M1332.78 2016.27V2125.81H1367.91V2052.88H1495.76V2125.81H1530.86V2016.46L1332.78 2016.27ZM1363.99 1980.84H1499.07C1517.83 1977.11 1531.78 1960.54 1535.72 1944.53H1327.35C1331.24 1960.55 1345.4 1977.11 1363.99 1980.84Z" fill="white"/>
<path d="M1226.39 2125.88C1244.1 2118.37 1253.63 2105.38 1257.28 2090.18H1099.72L1099.82 1944.62L1064.5 1944.72V2125.88H1226.39ZM801.853 1980.35H926.602C945.409 1974.88 961.201 1960.55 965.05 1944.67H766.879V2051.73H929.071V2089.3L801.848 2089.4C781.912 2094.96 765.004 2108.35 756.571 2126.03L766.879 2125.84H963.92V2016.14H801.848L801.853 1980.35Z" fill="white"/>
<path d="M493.891 1980.69H628.923C647.71 1976.95 661.672 1960.4 665.587 1944.37H457.227C461.116 1960.4 475.284 1976.95 493.891 1980.69ZM493.891 2052.29H628.923C647.71 2048.58 661.672 2032.02 665.587 2015.98H457.227C461.116 2032.03 475.284 2048.58 493.891 2052.29ZM493.891 2125.86H628.923C647.71 2122.13 661.672 2105.57 665.587 2089.55H457.227C461.116 2105.58 475.284 2122.13 493.891 2125.86Z" fill="white"/>
<path d="M142.596 1944.81C146.655 1960.64 160.368 1976.82 179.169 1980.88H236.01L238.909 1982.03V2125.46H274.403V1982.03L277.633 1980.88H334.523C353.54 1975.98 366.947 1960.64 370.937 1944.81V1944.46H142.596V1944.81Z" fill="white"/>
<path d="M865.582 1586.44L1042.94 589.013C1211.98 589.013 1265.3 607.55 1273 683.212C1273 683.212 1386.41 640.929 1443.6 555.054C1220.41 451.631 996.15 446.967 996.15 446.967L865.292 606.35L865.587 606.33L734.725 446.942C734.725 446.942 510.463 451.611 287.301 555.034C344.446 640.909 457.892 683.192 457.892 683.192C465.636 607.525 518.892 588.988 686.803 588.868L865.582 1586.44Z" fill="white"/>
<path d="M865.512 400.93C1045.93 399.55 1252.44 428.84 1463.85 520.979C1492.1 470.123 1499.36 447.647 1499.36 447.647C1268.26 356.218 1051.85 324.928 865.487 324.143C679.134 324.928 462.726 356.223 231.66 447.647C231.66 447.647 241.969 475.332 267.154 520.979C478.518 428.84 685.068 399.55 865.492 400.93H865.512Z" fill="white"/>
</g>
<defs>
<clipPath id="clip0_153_317">
<rect width="1729" height="2500" fill="white"/>
</clipPath>
</defs>
</svg>
